<?xml version="1.0" encoding="UTF-8" standalone="no"?>
<!-- Created with Inkscape (http://www.inkscape.org/) -->

<svg
   xmlns:dc="http://purl.org/dc/elements/1.1/"
   xmlns:cc="http://creativecommons.org/ns#"
   xmlns:rdf="http://www.w3.org/1999/02/22-rdf-syntax-ns#"
   xmlns:svg="http://www.w3.org/2000/svg"
   xmlns="http://www.w3.org/2000/svg"
   xmlns:sodipodi="http://sodipodi.sourceforge.net/DTD/sodipodi-0.dtd"
   xmlns:inkscape="http://www.inkscape.org/namespaces/inkscape"
   id="svg2"
   version="1.1"
   inkscape:version="0.48.4 r9939"
   width="211"
   height="69"
   viewBox="0 0 943 313" 
   preserveAspectRatio="xMidYMid meet"
   xml:space="preserve"
   sodipodi:docname="uwacrest-white.svg"><metadata
     id="metadata8"><rdf:RDF><cc:Work
         rdf:about=""><dc:format>image/svg+xml</dc:format><dc:type
           rdf:resource="http://purl.org/dc/dcmitype/StillImage" /><dc:title /></cc:Work></rdf:RDF></metadata><defs
     id="defs6"><filter
       id="filter3158"
       inkscape:label="Drop Shadow"
       color-interpolation-filters="sRGB"><feFlood
         id="feFlood3160"
         flood-opacity="0.5"
         flood-color="rgb(0,0,0)"
         result="flood" /><feComposite
         in2="SourceGraphic"
         id="feComposite3162"
         in="flood"
         operator="in"
         result="composite1" /><feGaussianBlur
         id="feGaussianBlur3164"
         stdDeviation="2"
         result="blur" /><feOffset
         id="feOffset3166"
         dx="0"
         dy="0"
         result="offset" /><feComposite
         in2="offset"
         id="feComposite3168"
         in="SourceGraphic"
         operator="over"
         result="composite2" /></filter></defs><sodipodi:namedview
     pagecolor="#ffffff"
     bordercolor="#666666"
     borderopacity="1"
     objecttolerance="10"
     gridtolerance="10"
     guidetolerance="10"
     inkscape:pageopacity="0"
     inkscape:pageshadow="2"
     inkscape:window-width="1218"
     inkscape:window-height="948"
     id="namedview4"
     showgrid="false"
     inkscape:zoom="0.56485117"
     inkscape:cx="319.87719"
     inkscape:cy="318.31111"
     inkscape:window-x="2103"
     inkscape:window-y="54"
     inkscape:window-maximized="0"
     inkscape:current-layer="g10" /><g
     id="g10"
     inkscape:groupmode="layer"
     inkscape:label="ink_ext_XXXXXX"
     transform="matrix(1.25,0,0,-1.25,0,313.63997)"><g
       id="g3069"
       style="filter:url(#filter3158)"
       transform="translate(3.9999219,4.0000728)"><path
         d="m 270.079,236.611 0,-5.852 c 0,-0.384 -0.288,-0.576 -0.768,-0.527 l -2.398,0.143 c -0.144,0 -0.336,0.096 -0.383,0.384 l -0.098,1.391 0,0.049 -7.29,0 0,-29.164 1.487,-0.096 c 0.336,0 0.479,-0.336 0.432,-0.768 l -0.144,-2.398 c 0,-0.24 -0.145,-0.383 -0.384,-0.383 l -8.202,0 c -0.383,0 -0.575,0.287 -0.528,0.768 l 0.145,2.397 c 0,0.144 0.095,0.337 0.383,0.384 l 1.391,0.096 0,29.164 -6.764,0 -0.095,-1.487 c 0,-0.337 -0.335,-0.48 -0.767,-0.433 l -2.399,0.144 c -0.24,0 -0.383,0.143 -0.383,0.383 l 0,5.805 26.765,0"
         style="fill:#ffffff;fill-opacity:1;fill-rule:nonzero;stroke:none"
         id="path14"
         inkscape:connector-curvature="0" /><path
         d="m 305.814,202.939 c 0.336,0 0.479,-0.336 0.431,-0.768 l -0.144,-2.398 c 0,-0.24 -0.143,-0.383 -0.384,-0.383 l -8.202,0 c -0.383,0 -0.575,0.287 -0.527,0.768 l 0.144,2.397 c 0,0.144 0.096,0.337 0.383,0.384 l 1.392,0.096 0,12.902 -16.693,0 0,-12.902 1.487,-0.096 c 0.337,0 0.48,-0.336 0.432,-0.768 l -0.144,-2.398 c 0,-0.24 -0.145,-0.383 -0.384,-0.383 l -8.202,0 c -0.384,0 -0.575,0.287 -0.528,0.768 l 0.144,2.397 c 0,0.144 0.097,0.337 0.384,0.384 l 1.392,0.096 0,29.931 -1.487,0.095 c -0.336,0 -0.48,0.335 -0.433,0.768 l 0.144,2.398 c 0,0.239 0.145,0.384 0.384,0.384 l 8.202,0 c 0.384,0 0.576,-0.289 0.528,-0.768 l -0.144,-2.398 c 0,-0.143 -0.095,-0.335 -0.384,-0.384 l -1.391,-0.095 0,-12.567 16.693,0 0,12.567 -1.487,0.095 c -0.336,0 -0.48,0.335 -0.432,0.768 l 0.144,2.398 c 0,0.239 0.143,0.384 0.383,0.384 l 8.202,0 c 0.384,0 0.576,-0.289 0.528,-0.768 l -0.144,-2.398 c 0,-0.143 -0.096,-0.335 -0.384,-0.384 l -1.39,-0.095 0,-29.931 1.487,-0.096"
         style="fill:#ffffff;fill-opacity:1;fill-rule:nonzero;stroke:none"
         id="path16"
         inkscape:connector-curvature="0" /><path
         d="m 336.37,205.625 c 0.24,0 0.383,-0.144 0.383,-0.384 l 0,-5.851 -23.263,0 c -0.384,0 -0.575,0.287 -0.527,0.768 l 0.143,2.397 c 0,0.144 0.097,0.337 0.384,0.384 l 1.392,0.096 0,29.931 -1.487,0.095 c -0.336,0 -0.48,0.335 -0.432,0.768 l 0.143,2.398 c 0,0.239 0.145,0.384 0.384,0.384 l 22.448,0 0,-5.852 c 0,-0.384 -0.289,-0.576 -0.767,-0.527 l -2.398,0.143 c -0.144,0 -0.335,0.096 -0.384,0.384 l -0.096,1.391 -11.943,0 0,-11.367 13.525,0 0,-4.414 -13.525,0 0,-12.518 12.758,0 0.097,1.487 c 0,0.335 0.337,0.48 0.767,0.432 l 2.398,-0.145"
         style="fill:#ffffff;fill-opacity:1;fill-rule:nonzero;stroke:none"
         id="path18"
         inkscape:connector-curvature="0" /><path
         d="m 391.668,236.611 c 0.385,0 0.576,-0.289 0.527,-0.768 l -0.142,-2.398 c 0,-0.143 -0.096,-0.335 -0.385,-0.384 l -1.39,-0.095 -0.145,0 0,-19.859 c 0,-9.688 -3.788,-14.293 -13.478,-14.293 -9.258,0 -13.286,3.118 -13.286,14.293 l 0,19.859 -1.488,0.095 c -0.336,0 -0.481,0.335 -0.432,0.768 l 0.144,2.398 c 0,0.239 0.143,0.384 0.385,0.384 l 8.2,0 c 0.385,0 0.577,-0.289 0.527,-0.768 l -0.142,-2.398 c 0,-0.143 -0.097,-0.335 -0.385,-0.384 l -1.388,-0.095 0,-20.818 c 0,-5.947 1.773,-9.161 7.817,-9.161 6.717,0 8.249,4.125 8.249,9.161 l 0,20.818 -1.485,0.095 c -0.336,0 -0.481,0.335 -0.433,0.768 l 0.145,2.398 c 0,0.239 0.144,0.384 0.384,0.384 l 8.201,0"
         style="fill:#ffffff;fill-opacity:1;fill-rule:nonzero;stroke:none"
         id="path20"
         inkscape:connector-curvature="0" /><path
         d="m 431.863,236.611 c 0.386,0 0.578,-0.289 0.529,-0.768 l -0.143,-2.398 c 0,-0.143 -0.098,-0.335 -0.386,-0.384 l -1.388,-0.095 -0.432,0 0,-33.576 -3.597,0 c -0.239,0 -0.385,0.096 -0.529,0.287 l -19.617,27.437 0,-24.079 0.43,0 1.489,-0.096 c 0.335,0 0.48,-0.336 0.431,-0.768 l -0.142,-2.398 c 0,-0.24 -0.146,-0.383 -0.385,-0.383 l -8.203,0 c -0.383,0 -0.575,0.287 -0.527,0.768 l 0.144,2.397 c 0,0.144 0.096,0.337 0.383,0.384 l 1.391,0.096 0,29.931 -1.488,0.095 c -0.334,0 -0.478,0.335 -0.43,0.768 l 0.144,2.398 c 0,0.239 0.143,0.384 0.383,0.384 l 5.322,0 c 0.29,0 0.433,-0.145 0.579,-0.336 l 19.233,-26.861 0,23.552 -1.487,0.095 c -0.335,0 -0.478,0.335 -0.432,0.768 l 0.144,2.398 c 0,0.239 0.145,0.384 0.384,0.384 l 8.2,0"
         style="fill:#ffffff;fill-opacity:1;fill-rule:nonzero;stroke:none"
         id="path22"
         inkscape:connector-curvature="0" /><path
         d="m 448.894,202.939 c 0.337,0 0.48,-0.336 0.432,-0.768 l -0.143,-2.398 c 0,-0.24 -0.146,-0.383 -0.386,-0.383 l -8.201,0 c -0.382,0 -0.574,0.287 -0.528,0.768 l 0.146,2.397 c 0,0.144 0.095,0.337 0.382,0.384 l 1.391,0.096 0,29.931 -1.486,0.095 c -0.335,0 -0.479,0.335 -0.433,0.768 l 0.146,2.398 c 0,0.239 0.143,0.384 0.382,0.384 l 8.201,0 c 0.386,0 0.577,-0.289 0.529,-0.768 l -0.143,-2.398 c 0,-0.143 -0.098,-0.335 -0.386,-0.384 l -1.389,-0.095 0,-29.931 1.486,-0.096"
         style="fill:#ffffff;fill-opacity:1;fill-rule:nonzero;stroke:none"
         id="path24"
         inkscape:connector-curvature="0" /><path
         d="m 487.891,236.611 c 0.385,0 0.576,-0.289 0.529,-0.768 l -0.144,-2.398 c 0,-0.143 -0.095,-0.335 -0.385,-0.384 l -1.391,-0.095 -11.896,-32.425 c -0.238,-0.72 -0.766,-1.151 -1.534,-1.151 l -4.03,0.143 c -0.143,0 -0.239,0.049 -0.335,0.288 l -12.424,33.145 -1.485,0.095 c -0.336,0 -0.479,0.335 -0.431,0.768 l 0.144,2.398 c 0,0.239 0.143,0.384 0.381,0.384 l 8.298,0 c 0.386,0 0.577,-0.289 0.528,-0.768 l -0.142,-2.398 c 0,-0.143 -0.097,-0.335 -0.386,-0.384 l -1.39,-0.095 9.64,-27.052 0.144,0 9.596,27.052 -1.488,0.095 c -0.336,0 -0.48,0.335 -0.432,0.768 l 0.143,2.398 c 0,0.239 0.145,0.384 0.383,0.384 l 8.107,0"
         style="fill:#ffffff;fill-opacity:1;fill-rule:nonzero;stroke:none"
         id="path26"
         inkscape:connector-curvature="0" /><path
         d="m 516.864,205.625 c 0.241,0 0.386,-0.144 0.386,-0.384 l 0,-5.851 -23.266,0 c -0.383,0 -0.575,0.287 -0.527,0.768 l 0.144,2.397 c 0,0.144 0.095,0.337 0.383,0.384 l 1.391,0.096 0,29.931 -1.487,0.095 c -0.335,0 -0.479,0.335 -0.431,0.768 l 0.144,2.398 c 0,0.239 0.144,0.384 0.383,0.384 l 22.449,0 0,-5.852 c 0,-0.384 -0.288,-0.576 -0.766,-0.527 l -2.399,0.143 c -0.147,0 -0.338,0.096 -0.385,0.384 l -0.096,1.391 -11.942,0 0,-11.367 13.527,0 0,-4.414 -13.527,0 0,-12.518 12.759,0 0.096,1.487 c 0,0.335 0.336,0.48 0.768,0.432 l 2.396,-0.145"
         style="fill:#ffffff;fill-opacity:1;fill-rule:nonzero;stroke:none"
         id="path28"
         inkscape:connector-curvature="0" /><path
         d="m 535.956,218.048 c 5.182,0 8.156,2.254 8.156,7.434 0,4.941 -2.832,6.908 -7.723,6.908 l -4.604,0 0,-14.342 4.171,0 z m 14.822,-15.109 c 0.335,0 0.478,-0.336 0.432,-0.768 l -0.144,-2.398 c 0,-0.24 -0.142,-0.383 -0.383,-0.383 l -5.47,0 -8.152,14.389 -5.276,0 0,-10.744 1.488,-0.096 c 0.332,0 0.478,-0.336 0.43,-0.768 l -0.144,-2.398 c 0,-0.24 -0.143,-0.383 -0.382,-0.383 l -8.204,0 c -0.385,0 -0.576,0.287 -0.528,0.768 l 0.143,2.397 c 0,0.144 0.099,0.337 0.385,0.384 l 1.39,0.096 0,29.931 -1.486,0.095 c -0.337,0 -0.48,0.335 -0.432,0.768 l 0.143,2.398 c 0,0.239 0.146,0.384 0.385,0.384 l 10.84,0 c 9.353,0 13.766,-3.55 13.766,-11.129 0,-4.844 -2.541,-8.969 -7.097,-10.695 l 6.81,-11.752 1.486,-0.096"
         style="fill:#ffffff;fill-opacity:1;fill-rule:nonzero;stroke:none"
         id="path30"
         inkscape:connector-curvature="0" /><path
         d="m 580.566,209.606 c 0,-6.043 -4.461,-10.455 -12.856,-10.455 -4.509,0 -8.106,0.958 -10.696,2.062 l 0,5.804 c 0,0.431 0.338,0.67 0.913,0.623 l 2.878,-0.192 c 0.19,0 0.429,-0.095 0.48,-0.431 l 0.095,-2.592 c 2.255,-0.527 4.508,-0.814 6.045,-0.814 4.362,0 7.769,1.486 7.769,5.468 0,4.268 -1.631,5.133 -9.018,7.769 -5.371,2.017 -9.065,4.75 -9.065,10.075 0,5.995 4.555,9.976 12.662,9.976 2.972,0 5.804,-0.288 8.493,-0.96 l 0,-6.283 c 0,-0.431 -0.339,-0.672 -0.914,-0.623 l -2.878,0.192 c -0.195,0 -0.431,0.095 -0.481,0.431 l -0.094,2.591 c -1.297,0.143 -2.59,0.239 -3.791,0.239 -4.462,0 -7.387,-2.063 -7.387,-5.372 0,-3.454 2.015,-4.701 8.588,-7.05 6.859,-2.4 9.257,-5.661 9.257,-10.458"
         style="fill:#ffffff;fill-opacity:1;fill-rule:nonzero;stroke:none"
         id="path32"
         inkscape:connector-curvature="0" /><path
         d="m 596.109,202.939 c 0.334,0 0.477,-0.336 0.429,-0.768 l -0.142,-2.398 c 0,-0.24 -0.144,-0.383 -0.383,-0.383 l -8.202,0 c -0.386,0 -0.578,0.287 -0.531,0.768 l 0.145,2.397 c 0,0.144 0.099,0.337 0.386,0.384 l 1.39,0.096 0,29.931 -1.487,0.095 c -0.337,0 -0.481,0.335 -0.434,0.768 l 0.145,2.398 c 0,0.239 0.144,0.384 0.386,0.384 l 8.202,0 c 0.383,0 0.573,-0.289 0.525,-0.768 l -0.142,-2.398 c 0,-0.143 -0.097,-0.335 -0.383,-0.384 l -1.392,-0.095 0,-29.931 1.488,-0.096"
         style="fill:#ffffff;fill-opacity:1;fill-rule:nonzero;stroke:none"
         id="path34"
         inkscape:connector-curvature="0" /><path
         d="m 629.061,236.611 0,-5.852 c 0,-0.384 -0.288,-0.576 -0.767,-0.527 l -2.399,0.143 c -0.145,0 -0.334,0.096 -0.385,0.384 l -0.096,1.391 0,0.049 -7.289,0 0,-29.164 1.488,-0.096 c 0.334,0 0.479,-0.336 0.43,-0.768 l -0.144,-2.398 c 0,-0.24 -0.142,-0.383 -0.384,-0.383 l -8.201,0 c -0.385,0 -0.576,0.287 -0.528,0.768 l 0.143,2.397 c 0,0.144 0.096,0.337 0.385,0.384 l 1.39,0.096 0,29.164 -6.762,0 -0.095,-1.487 c 0,-0.337 -0.337,-0.48 -0.769,-0.433 l -2.398,0.144 c -0.24,0 -0.385,0.143 -0.385,0.383 l 0,5.805 26.766,0"
         style="fill:#ffffff;fill-opacity:1;fill-rule:nonzero;stroke:none"
         id="path36"
         inkscape:connector-curvature="0" /><path
         d="m 661.391,236.611 c 0.381,0 0.575,-0.289 0.528,-0.768 l -0.147,-2.398 c 0,-0.143 -0.095,-0.335 -0.381,-0.384 l -1.392,-0.095 -10.456,-20.482 0,-9.449 1.486,-0.096 c 0.337,0 0.481,-0.336 0.433,-0.768 l -0.143,-2.398 c 0,-0.24 -0.143,-0.383 -0.384,-0.383 l -8.203,0 c -0.382,0 -0.576,0.287 -0.528,0.768 l 0.146,2.397 c 0,0.144 0.092,0.337 0.382,0.384 l 1.389,0.096 0,9.547 -10.31,20.384 -1.44,0.095 c -0.335,0 -0.48,0.335 -0.433,0.768 l 0.146,2.398 c 0,0.239 0.144,0.384 0.383,0.384 l 8.203,0 c 0.382,0 0.575,-0.289 0.528,-0.768 l -0.146,-2.398 c 0,-0.143 -0.095,-0.335 -0.382,-0.384 l -1.343,-0.095 7.483,-15.445 0.144,0 7.723,15.445 -1.489,0.095 c -0.335,0 -0.479,0.335 -0.43,0.768 l 0.142,2.398 c 0,0.239 0.145,0.384 0.384,0.384 l 8.107,0"
         style="fill:#ffffff;fill-opacity:1;fill-rule:nonzero;stroke:none"
         id="path38"
         inkscape:connector-curvature="0" /><path
         d="m 685.626,218.048 c 0,-6.284 1.438,-14.437 9.305,-14.437 6.522,0 9.352,5.564 9.352,14.437 0,6.428 -1.583,14.342 -9.304,14.342 -7.867,0 -9.353,-8.107 -9.353,-14.342 z m 24.316,-0.095 c 0,-12.712 -5.611,-18.851 -15.011,-18.851 -9.305,0 -15.014,6.331 -15.014,18.851 0,9.018 3.405,18.897 15.108,18.897 10.026,0 14.917,-7.675 14.917,-18.897"
         style="fill:#ffffff;fill-opacity:1;fill-rule:nonzero;stroke:none"
         id="path40"
         inkscape:connector-curvature="0" /><path
         d="m 738.676,236.611 0,-5.852 c 0,-0.384 -0.288,-0.576 -0.767,-0.527 l -2.398,0.143 c -0.145,0 -0.337,0.096 -0.384,0.384 l -0.097,1.391 -11.991,0 0,-11.367 12.998,0 0,-4.414 -12.998,0 0,-13.334 1.488,-0.096 c 0.335,0 0.481,-0.336 0.432,-0.768 l -0.144,-2.398 c 0,-0.24 -0.145,-0.383 -0.384,-0.383 l -8.204,0 c -0.381,0 -0.573,0.287 -0.526,0.768 l 0.145,2.397 c 0,0.144 0.094,0.337 0.381,0.384 l 1.392,0.096 0,29.931 -1.485,0.095 c -0.337,0 -0.48,0.335 -0.433,0.768 l 0.145,2.398 c 0,0.239 0.142,0.384 0.381,0.384 l 22.449,0"
         style="fill:#ffffff;fill-opacity:1;fill-rule:nonzero;stroke:none"
         id="path42"
         inkscape:connector-curvature="0" /><path
         d="m 345.026,182.073 c 0.848,0 1.272,-0.637 1.166,-1.697 l -0.318,-5.302 c 0,-0.319 -0.213,-0.742 -0.848,-0.848 l -2.97,-0.213 -17.919,-70.515 c -0.638,-2.333 -2.546,-3.7109 -4.879,-3.7109 l -8.27,0.3169 c -1.168,0 -1.592,0.743 -1.911,1.909 l -14.421,62.033 -0.105,0 -14.209,-59.275 c -0.531,-2.122 -1.909,-5.0909 -5.621,-4.9839 l -7.952,0.3169 c -0.955,0 -1.59,0.531 -1.909,1.909 l -17.39,72 -3.181,0.213 c -0.742,0 -1.06,0.742 -0.956,1.697 l 0.319,5.302 c 0,0.53 0.32,0.848 0.848,0.848 l 17.497,0 c 0.848,0 1.272,-0.637 1.167,-1.697 l -0.319,-5.302 c 0,-0.319 -0.212,-0.742 -0.848,-0.848 l -2.97,-0.213 13.574,-61.82 0.106,0 15.163,65.002 c 0.848,3.711 2.651,4.984 5.197,4.878 l 6.044,-0.318 c 1.059,-0.107 1.483,-0.637 1.802,-2.015 l 15.375,-67.547 0.107,0 14.209,61.82 -3.181,0.213 c -0.742,0 -1.061,0.742 -0.955,1.697 l 0.318,5.302 c 0,0.53 0.319,0.848 0.848,0.848 l 17.392,0"
         style="fill:#ffffff;fill-opacity:1;fill-rule:nonzero;stroke:none"
         id="path44"
         inkscape:connector-curvature="0" /><path
         d="m 403.765,113.572 c 0.529,0 0.848,-0.318 0.848,-0.849 l 0,-12.9359 -51.427,0 c -0.848,0 -1.273,0.6369 -1.167,1.6959 l 0.319,5.302 c 0,0.318 0.211,0.743 0.848,0.849 l 3.074,0.211 0,66.168 -3.287,0.213 c -0.742,0 -1.06,0.742 -0.954,1.697 l 0.319,5.302 c 0,0.53 0.317,0.848 0.848,0.848 l 49.626,0 0,-12.937 c 0,-0.847 -0.638,-1.272 -1.697,-1.166 l -5.302,0.319 c -0.319,0 -0.743,0.211 -0.85,0.847 l -0.21,3.075 -26.403,0 0,-25.131 29.902,0 0,-9.756 -29.902,0 0,-27.676 28.206,0 0.212,3.287 c 0,0.742 0.742,1.061 1.696,0.955 l 5.301,-0.318"
         style="fill:#ffffff;fill-opacity:1;fill-rule:nonzero;stroke:none"
         id="path46"
         inkscape:connector-curvature="0" /><path
         d="m 464.629,122.373 c 0,-13.362 -9.861,-23.1171 -28.419,-23.1171 -9.968,0 -17.92,2.1221 -23.646,4.5611 l 0,12.829 c 0,0.955 0.741,1.486 2.015,1.379 l 6.361,-0.424 c 0.425,0 0.956,-0.213 1.062,-0.955 l 0.211,-5.725 c 4.983,-1.167 9.969,-1.802 13.362,-1.802 9.652,0 17.176,3.286 17.176,12.088 0,9.437 -3.604,11.345 -19.935,17.178 -11.876,4.454 -20.041,10.497 -20.041,22.268 0,13.254 10.075,22.056 27.996,22.056 6.575,0 12.829,-0.636 18.767,-2.12 l 0,-13.892 c 0,-0.954 -0.741,-1.484 -2.013,-1.378 l -6.362,0.424 c -0.425,0 -0.956,0.212 -1.061,0.954 l -0.211,5.726 c -2.865,0.319 -5.728,0.53 -8.377,0.53 -9.862,0 -16.332,-4.559 -16.332,-11.875 0,-7.635 4.455,-10.393 18.981,-15.588 15.164,-5.303 20.466,-12.514 20.466,-23.117"
         style="fill:#ffffff;fill-opacity:1;fill-rule:nonzero;stroke:none"
         id="path48"
         inkscape:connector-curvature="0" /><path
         d="m 528.037,182.073 0,-12.937 c 0,-0.847 -0.637,-1.272 -1.697,-1.166 l -5.302,0.319 c -0.316,0 -0.743,0.211 -0.848,0.847 l -0.211,3.075 0,0.106 -16.12,0 0,-64.472 3.288,-0.211 c 0.743,0 1.06,-0.743 0.954,-1.698 l -0.319,-5.301 c 0,-0.531 -0.316,-0.8479 -0.848,-0.8479 l -18.131,0 c -0.849,0 -1.273,0.6369 -1.167,1.6959 l 0.318,5.302 c 0,0.318 0.211,0.743 0.849,0.849 l 3.074,0.211 0,64.472 -14.951,0 -0.211,-3.286 c 0,-0.742 -0.744,-1.061 -1.697,-0.956 l -5.301,0.319 c -0.533,0 -0.849,0.318 -0.849,0.848 l 0,12.831 59.169,0"
         style="fill:#ffffff;fill-opacity:1;fill-rule:nonzero;stroke:none"
         id="path50"
         inkscape:connector-curvature="0" /><path
         d="m 587.521,113.572 c 0.531,0 0.848,-0.318 0.848,-0.849 l 0,-12.9359 -51.429,0 c -0.849,0 -1.273,0.6369 -1.166,1.6959 l 0.317,5.302 c 0,0.318 0.215,0.743 0.849,0.849 l 3.077,0.211 0,66.168 -3.288,0.213 c -0.743,0 -1.062,0.742 -0.955,1.697 l 0.317,5.302 c 0,0.53 0.318,0.848 0.849,0.848 l 49.626,0 0,-12.937 c 0,-0.847 -0.634,-1.272 -1.697,-1.166 l -5.301,0.319 c -0.319,0 -0.742,0.211 -0.848,0.847 l -0.213,3.075 -26.403,0 0,-25.131 29.904,0 0,-9.756 -29.904,0 0,-27.676 28.207,0 0.211,3.287 c 0,0.742 0.744,1.061 1.697,0.955 l 5.302,-0.318"
         style="fill:#ffffff;fill-opacity:1;fill-rule:nonzero;stroke:none"
         id="path52"
         inkscape:connector-curvature="0" /><path
         d="m 623.783,141.036 c 11.452,0 18.027,4.983 18.027,16.436 0,10.922 -6.256,15.27 -17.073,15.27 l -10.179,0 0,-31.706 9.225,0 z m 32.767,-33.402 c 0.743,0 1.058,-0.743 0.953,-1.698 l -0.317,-5.301 c 0,-0.531 -0.319,-0.8479 -0.85,-0.8479 l -12.087,0 -18.028,31.8109 -11.663,0 0,-23.753 3.287,-0.211 c 0.741,0 1.059,-0.743 0.955,-1.698 l -0.32,-5.301 c 0,-0.531 -0.318,-0.8479 -0.846,-0.8479 l -18.134,0 c -0.849,0 -1.273,0.6369 -1.165,1.6959 l 0.316,5.302 c 0,0.318 0.213,0.743 0.849,0.849 l 3.076,0.211 0,66.168 -3.287,0.213 c -0.744,0 -1.062,0.742 -0.954,1.697 l 0.316,5.302 c 0,0.53 0.32,0.848 0.849,0.848 l 23.965,0 c 20.679,0 30.433,-7.847 30.433,-24.601 0,-10.711 -5.623,-19.83 -15.693,-23.647 l 15.057,-25.98 3.288,-0.211"
         style="fill:#ffffff;fill-opacity:1;fill-rule:nonzero;stroke:none"
         id="path54"
         inkscape:connector-curvature="0" /><path
         d="m 737.875,182.073 c 0.849,0 1.274,-0.637 1.167,-1.697 l -0.318,-5.302 c 0,-0.319 -0.21,-0.742 -0.849,-0.848 l -3.073,-0.213 -0.954,0 0,-74.2259 -7.953,0 c -0.532,0 -0.849,0.2129 -1.167,0.6369 l -43.37,60.654 0,-53.233 0.955,0 3.287,-0.211 c 0.742,0 1.062,-0.743 0.954,-1.698 l -0.318,-5.301 c 0,-0.531 -0.318,-0.8479 -0.849,-0.8479 l -18.132,0 c -0.848,0 -1.274,0.6369 -1.166,1.6959 l 0.318,5.302 c 0,0.318 0.21,0.743 0.848,0.849 l 3.074,0.211 0,66.168 -3.288,0.213 c -0.74,0 -1.06,0.742 -0.952,1.697 l 0.318,5.302 c 0,0.53 0.319,0.848 0.848,0.848 l 11.77,0 c 0.635,0 0.954,-0.318 1.273,-0.743 l 42.52,-59.382 0,52.065 -3.287,0.213 c -0.742,0 -1.058,0.742 -0.954,1.697 l 0.319,5.302 c 0,0.53 0.317,0.848 0.848,0.848 l 18.131,0"
         style="fill:#ffffff;fill-opacity:1;fill-rule:nonzero;stroke:none"
         id="path56"
         inkscape:connector-curvature="0" /><path
         d="m 286.314,37.873 -11.795,33.4829 -0.09,0 -11.163,-33.4829 23.048,0 z m 19.872,-18.6011 c 0.636,0 0.908,-0.636 0.817,-1.452 l -0.272,-4.5367 c 0,-0.4531 -0.273,-0.7262 -0.634,-0.7262 l -15.88,0 c -0.726,0 -1.09,0.5442 -0.998,1.4532 l 0.272,4.5359 c 0,0.2719 0.18,0.6348 0.726,0.7258 l 2.54,0.1812 -3.538,10.0719 -28.765,0 -3.357,-10.0719 2.812,-0.1812 c 0.635,0 0.908,-0.636 0.817,-1.452 l -0.272,-4.5367 c 0,-0.4531 -0.272,-0.7262 -0.726,-0.7262 l -15.335,0 c -0.726,0 -1.09,0.5442 -0.998,1.4532 l 0.272,4.5359 c 0,0.2719 0.181,0.6348 0.726,0.7258 l 2.541,0.1812 20.324,56.6219 -2.722,0.1809 c -0.634,0 -0.907,0.6339 -0.816,1.4531 l 0.272,4.5359 c 0,0.4539 0.273,0.725 0.728,0.725 l 14.426,0 24.319,-63.5168 2.721,-0.1812"
         style="fill:#ffffff;fill-opacity:1;fill-rule:nonzero;stroke:none"
         id="path58"
         inkscape:connector-curvature="0" /><path
         d="m 363.712,82.9699 c 0.723,0 1.088,-0.5429 0.997,-1.4508 l -0.274,-4.5371 c 0,-0.2711 -0.178,-0.6351 -0.723,-0.7261 l -2.633,-0.1809 -0.272,0 0,-37.566 c 0,-18.3301 -7.168,-27.041 -25.498,-27.041 -17.513,0 -25.135,5.8992 -25.135,27.041 l 0,37.566 -2.812,0.1809 c -0.636,0 -0.908,0.6339 -0.817,1.4531 l 0.271,4.5359 c 0,0.4539 0.274,0.725 0.727,0.725 l 15.516,0 c 0.726,0 1.089,-0.5429 0.999,-1.4508 l -0.273,-4.5371 c 0,-0.2711 -0.181,-0.6351 -0.726,-0.7261 l -2.631,-0.1809 0,-39.382 c 0,-11.252 3.357,-17.3309 14.79,-17.3309 12.705,0 15.607,7.8039 15.607,17.3309 l 0,39.382 -2.812,0.1809 c -0.636,0 -0.908,0.6339 -0.817,1.4531 l 0.273,4.5359 c 0,0.4539 0.272,0.725 0.725,0.725 l 15.518,0"
         style="fill:#ffffff;fill-opacity:1;fill-rule:nonzero;stroke:none"
         id="path60"
         inkscape:connector-curvature="0" /><path
         d="m 415.156,31.8852 c 0,-11.434 -8.438,-19.7821 -24.319,-19.7821 -8.528,0 -15.333,1.816 -20.234,3.902 l 0,10.9789 c 0,0.8172 0.636,1.2719 1.725,1.1801 l 5.443,-0.3629 c 0.363,0 0.817,-0.1813 0.908,-0.8172 l 0.18,-4.8981 c 4.267,-1 8.531,-1.5429 11.434,-1.5429 8.257,0 14.7,2.8121 14.7,10.3429 0,8.077 -3.083,9.709 -17.057,14.7 -10.165,3.811 -17.151,8.9832 -17.151,19.0551 0,11.343 8.62,18.8738 23.955,18.8738 5.626,0 10.981,-0.5449 16.062,-1.816 l 0,-11.8859 c 0,-0.816 -0.637,-1.2688 -1.724,-1.1789 l -5.445,0.3629 c -0.364,0 -0.819,0.1812 -0.908,0.816 l -0.18,4.9012 c -2.452,0.2718 -4.903,0.4531 -7.169,0.4531 -8.44,0 -13.974,-3.9024 -13.974,-10.1621 0,-6.5352 3.811,-8.8942 16.24,-13.3391 12.976,-4.5371 17.514,-10.707 17.514,-19.7808"
         style="fill:#ffffff;fill-opacity:1;fill-rule:nonzero;stroke:none"
         id="path62"
         inkscape:connector-curvature="0" /><path
         d="m 470.685,82.9699 0,-11.0699 c 0,-0.7238 -0.546,-1.0891 -1.453,-0.998 l -4.537,0.2742 c -0.271,0 -0.635,0.1797 -0.723,0.7238 l -0.185,2.632 0,0.091 -13.793,0 0,-55.1699 2.813,-0.1812 c 0.635,0 0.91,-0.636 0.82,-1.452 l -0.274,-4.5367 c 0,-0.4531 -0.272,-0.7262 -0.726,-0.7262 l -15.517,0 c -0.724,0 -1.088,0.5442 -0.996,1.4532 l 0.272,4.5359 c 0,0.2719 0.18,0.6348 0.724,0.7258 l 2.632,0.1812 0,55.1699 -12.794,0 -0.18,-2.8128 c 0,-0.634 -0.636,-0.9082 -1.452,-0.8172 l -4.54,0.2718 c -0.451,0 -0.722,0.2731 -0.722,0.7262 l 0,10.9789 50.631,0"
         style="fill:#ffffff;fill-opacity:1;fill-rule:nonzero;stroke:none"
         id="path64"
         inkscape:connector-curvature="0" /><path
         d="m 499.261,47.8539 c 9.802,0 15.427,4.266 15.427,14.066 0,9.3449 -5.351,13.066 -14.61,13.066 l -8.709,0 0,-27.132 7.892,0 z M 527.3,19.2719 c 0.636,0 0.908,-0.636 0.819,-1.452 l -0.273,-4.5367 c 0,-0.4531 -0.273,-0.7262 -0.728,-0.7262 l -10.343,0 -15.425,27.2219 -9.981,0 0,-20.3258 2.813,-0.1812 c 0.634,0 0.906,-0.636 0.816,-1.452 l -0.271,-4.5367 c 0,-0.4531 -0.272,-0.7262 -0.728,-0.7262 l -15.516,0 c -0.725,0 -1.087,0.5442 -1,1.4532 l 0.275,4.5359 c 0,0.2719 0.18,0.6348 0.725,0.7258 l 2.632,0.1812 0,56.6219 -2.812,0.1809 c -0.634,0 -0.907,0.6339 -0.82,1.4531 l 0.275,4.5359 c 0,0.4539 0.272,0.725 0.725,0.725 l 20.508,0 c 17.695,0 26.042,-6.714 26.042,-21.05 0,-9.164 -4.808,-16.9687 -13.429,-20.2359 l 12.886,-22.2309 2.81,-0.1812"
         style="fill:#ffffff;fill-opacity:1;fill-rule:nonzero;stroke:none"
         id="path66"
         inkscape:connector-curvature="0" /><path
         d="m 575.207,37.873 -11.797,33.4829 -0.088,0 -11.166,-33.4829 23.051,0 z m 19.872,-18.6011 c 0.635,0 0.908,-0.636 0.816,-1.452 l -0.27,-4.5367 c 0,-0.4531 -0.273,-0.7262 -0.637,-0.7262 l -15.879,0 c -0.725,0 -1.089,0.5442 -0.998,1.4532 l 0.273,4.5359 c 0,0.2719 0.179,0.6348 0.725,0.7258 l 2.54,0.1812 -3.538,10.0719 -28.764,0 -3.358,-10.0719 2.812,-0.1812 c 0.638,0 0.909,-0.636 0.816,-1.452 l -0.27,-4.5367 c 0,-0.4531 -0.274,-0.7262 -0.725,-0.7262 l -15.337,0 c -0.724,0 -1.089,0.5442 -0.997,1.4532 l 0.273,4.5359 c 0,0.2719 0.179,0.6348 0.724,0.7258 l 2.542,0.1812 20.323,56.6219 -2.72,0.1809 c -0.637,0 -0.907,0.6339 -0.818,1.4531 l 0.275,4.5359 c 0,0.4539 0.27,0.725 0.725,0.725 l 14.426,0 24.317,-63.5168 2.724,-0.1812"
         style="fill:#ffffff;fill-opacity:1;fill-rule:nonzero;stroke:none"
         id="path68"
         inkscape:connector-curvature="0" /><path
         d="m 645.891,24.3531 c 0.455,0 0.723,-0.2722 0.723,-0.7261 l 0,-11.07 -44.007,0 c -0.726,0 -1.087,0.5442 -1,1.4532 l 0.274,4.5359 c 0,0.2719 0.182,0.6348 0.726,0.7258 l 2.631,0.1812 0,56.6219 -2.812,0.1809 c -0.633,0 -0.906,0.6339 -0.819,1.4531 l 0.274,4.5359 c 0,0.4539 0.271,0.725 0.726,0.725 l 15.517,0 c 0.726,0 1.088,-0.5429 0.997,-1.4508 L 618.85,76.982 c 0,-0.2711 -0.18,-0.6351 -0.726,-0.7261 l -2.632,-0.1809 0,-55.0789 24.227,0 0.182,2.8121 c 0,0.6359 0.634,0.9078 1.452,0.818 l 4.538,-0.2731"
         style="fill:#ffffff;fill-opacity:1;fill-rule:nonzero;stroke:none"
         id="path70"
         inkscape:connector-curvature="0" /><path
         d="m 668.751,19.2719 c 0.636,0 0.908,-0.636 0.817,-1.452 l -0.272,-4.5367 c 0,-0.4531 -0.273,-0.7262 -0.727,-0.7262 l -15.514,0 c -0.729,0 -1.09,0.5442 -1,1.4532 l 0.271,4.5359 c 0,0.2719 0.182,0.6348 0.729,0.7258 l 2.63,0.1812 0,56.6219 -2.813,0.1809 c -0.634,0 -0.907,0.6339 -0.817,1.4531 l 0.271,4.5359 c 0,0.4539 0.275,0.725 0.729,0.725 l 15.514,0 c 0.727,0 1.09,-0.5429 0.999,-1.4508 l -0.272,-4.5371 c 0,-0.2711 -0.181,-0.6351 -0.727,-0.7261 l -2.63,-0.1809 0,-56.6219 2.812,-0.1812"
         style="fill:#ffffff;fill-opacity:1;fill-rule:nonzero;stroke:none"
         id="path72"
         inkscape:connector-curvature="0" /><path
         d="m 718.386,37.873 -11.796,33.4829 -0.09,0 -11.163,-33.4829 23.049,0 z m 19.871,-18.6011 c 0.637,0 0.906,-0.636 0.817,-1.452 l -0.273,-4.5367 c 0,-0.4531 -0.273,-0.7262 -0.634,-0.7262 l -15.881,0 c -0.723,0 -1.089,0.5442 -0.998,1.4532 l 0.275,4.5359 c 0,0.2719 0.181,0.6348 0.723,0.7258 l 2.541,0.1812 -3.539,10.0719 -28.765,0 -3.355,-10.0719 2.811,-0.1812 c 0.636,0 0.909,-0.636 0.819,-1.452 l -0.275,-4.5367 c 0,-0.4531 -0.269,-0.7262 -0.724,-0.7262 l -15.335,0 c -0.728,0 -1.091,0.5442 -0.999,1.4532 l 0.271,4.5359 c 0,0.2719 0.183,0.6348 0.728,0.7258 l 2.54,0.1812 20.324,56.6219 -2.721,0.1809 c -0.633,0 -0.907,0.6339 -0.814,1.4531 l 0.268,4.5359 c 0,0.4539 0.274,0.725 0.728,0.725 l 14.429,0 24.318,-63.5168 2.721,-0.1812"
         style="fill:#ffffff;fill-opacity:1;fill-rule:nonzero;stroke:none"
         id="path74"
         inkscape:connector-curvature="0" /><path
         d="m 191.81,73.2109 c -18.205,-29.8257 -49.852,-47.623 -84.779,-47.623 -34.9263,0 -66.5747,17.7973 -84.7771,47.625 L 3.18047,55.5719 C 13.8328,39.6379 28.0813,26.2461 44.7012,16.6539 63.5703,5.76016 85.127,0 107.031,0 c 21.903,0 43.455,5.76016 62.332,16.6539 16.14,9.3141 30.533,23.9883 41.08,39.3242 L 191.81,73.2109"
         style="fill:#ffffff;fill-opacity:1;fill-rule:nonzero;stroke:none"
         id="path76"
         inkscape:connector-curvature="0" /><path
         d="m 24.3906,236.629 165.283,0 0,6.27734 -165.283,0 0,-6.27734 z"
         style="fill:#e2b600;fill-opacity:1;fill-rule:nonzero;stroke:none"
         id="path78"
         inkscape:connector-curvature="0" /><path
         d="M 189.674,176.761 C 189.359,158.329 193.691,85.1828 107.033,34.0082 20.373,85.1828 24.7051,158.329 24.3906,176.761 l 0,59.868 165.2834,0 0,-59.868"
         style="fill:#ffffff;fill-opacity:1;fill-rule:nonzero;stroke:none"
         id="path80"
         inkscape:connector-curvature="0" /><path
         d="M 107.033,37.7922 C 28.0012,85.3738 27.7473,151.677 27.6648,173.566 c -0.0043,1.219 -0.0085,2.305 -0.0246,3.25 l 4e-4,59.813 158.7834,0 0,-59.868 c -0.016,-0.89 -0.02,-1.976 -0.025,-3.195 -0.04,-10.844 -0.125,-33.406 -10.255,-58.825 C 163.843,83.8781 140.597,57.9969 107.033,37.7922"
         style="fill:#27348b;fill-opacity:1;fill-rule:nonzero;stroke:none"
         id="path82"
         inkscape:connector-curvature="0" /><path
         d="M 35.3145,112.519 C 45.8047,86.7832 66.4316,57.984 107.033,34.0082 c 40.602,23.9758 61.229,52.775 71.717,78.5108 l -71.719,66.324 -71.7165,-66.324"
         style="fill:#e2b600;fill-opacity:1;fill-rule:nonzero;stroke:none"
         id="path84"
         inkscape:connector-curvature="0" /><path
         d="m 93.5664,220.283 c 0,-10.625 0,-21.246 0,-31.871 -8.5566,3.14 -18.873,0.638 -24.3476,-3.393 0,10.526 0,21.053 0,31.574 4.8085,4.684 16.1425,6.778 24.3476,3.69"
         style="fill:#ffffff;fill-opacity:1;fill-rule:evenodd;stroke:none"
         id="path86"
         inkscape:connector-curvature="0" /><path
         d="m 42.5156,220.199 c 0,-10.624 0,-21.245 0,-31.87 8.5508,3.141 18.8692,0.639 24.3457,-3.393 0,10.525 0,21.053 0,31.575 -4.8066,4.683 -16.1406,6.776 -24.3457,3.688"
         style="fill:#ffffff;fill-opacity:1;fill-rule:evenodd;stroke:none"
         id="path88"
         inkscape:connector-curvature="0" /><path
         d="m 100.902,194.921 -0.07,0.01 c -1.2234,0.132 -2.1574,0.201 -2.7929,0.239 l 0,10.394 c 0.6211,-0.036 1.5285,-0.104 2.7229,-0.232 l 0.14,-0.004 c 2.444,-0.11 2.78,1.136 2.78,1.136 -0.555,1.29 -1.787,1.872 -2.78,1.952 l -0.07,0.007 c -1.2234,0.133 -2.1574,0.204 -2.7929,0.242 l 0,8.78 -2.1621,0 0,-32.045 c -11.7754,2.514 -20.6758,1.219 -27.8418,-4.039 -7.1622,5.258 -16.0625,6.551 -27.8379,4.039 l 0,32.045 -2.1621,0 0,-8.779 c -0.4539,-0.028 -1.0539,-0.07 -1.8145,-0.141 l 0,0.326 c 0,0.245 -0.1992,0.444 -0.4824,0.442 l -2.9375,-0.317 c -0.2363,-0.015 -0.4199,-0.207 -0.4199,-0.447 l 0,-3.758 c 0,-0.244 0.2011,-0.441 0.5039,-0.433 l 2.9257,0.285 c 0.2266,0.023 0.4102,0.218 0.4102,0.447 l 0,0.357 c 0.7606,0.073 1.3613,0.115 1.8145,0.141 l 0,-10.398 c -0.4539,-0.027 -1.0539,-0.069 -1.8145,-0.141 l 0,0.332 c 0,0.244 -0.1992,0.439 -0.4824,0.439 l -2.9375,-0.318 c -0.2363,-0.011 -0.4199,-0.207 -0.4199,-0.451 l 0,-3.75 c 0,-0.244 0.2011,-0.443 0.5039,-0.438 l 2.9257,0.295 c 0.2266,0.016 0.4102,0.208 0.4102,0.442 l 0,0.355 c 0.7606,0.072 1.3613,0.113 1.8145,0.14 l 0,-9.384 1.3281,0.309 c 12.123,2.826 21.0234,1.603 28.0058,-3.842 l 0.6661,-0.526 0.6699,0.526 c 6.9804,5.445 15.8828,6.666 28.0078,3.842 l 1.3262,-0.309 0,9.381 c 0.6211,-0.036 1.5285,-0.104 2.7229,-0.233 l 0.14,-0.005 c 2.444,-0.109 2.78,1.137 2.78,1.137 -0.555,1.288 -1.787,1.87 -2.78,1.95"
         style="fill:#ffffff;fill-opacity:1;fill-rule:nonzero;stroke:none"
         id="path90"
         inkscape:connector-curvature="0" /><path
         d="m 39.7688,31.4629 c -1.1559,-1.4957 -3.1047,-1.7359 -5.1825,-0.1297 -1.1172,0.8617 -1.8242,1.7879 -2.2543,2.5559 l 1.1106,1.4371 c 0.0828,0.107 0.2113,0.1008 0.3445,-0.0203 l 0.6762,-0.5969 c 0.0469,-0.0371 0.0887,-0.1078 0.0363,-0.1988 l -0.4719,-0.6614 c 0.4567,-0.5597 0.9606,-1.0636 1.3399,-1.3566 1.0812,-0.834 2.2086,-1.1172 2.9703,-0.1332 0.8164,1.0582 0.5781,1.5832 -0.7465,3.65 -0.9449,1.5262 -1.3363,2.909 -0.318,4.2269 1.1465,1.484 3.0364,1.5993 5.0434,0.0481 0.7359,-0.568 1.382,-1.1809 1.918,-1.861 l -1.2016,-1.5558 c -0.082,-0.107 -0.2113,-0.1024 -0.3453,0.0187 l -0.675,0.5993 c -0.0481,0.0359 -0.0891,0.107 -0.0359,0.198 l 0.471,0.6598 c -0.2925,0.284 -0.5949,0.555 -0.8917,0.784 -1.1047,0.8531 -2.2235,0.9019 -2.8567,0.0839 -0.6601,-0.8558 -0.4,-1.5507 0.777,-3.389 1.239,-1.9047 1.2097,-3.1719 0.2922,-4.359"
         style="fill:#27348b;fill-opacity:1;fill-rule:nonzero;stroke:none"
         id="path92"
         inkscape:connector-curvature="0" /><path
         d="m 51.2813,22.7352 c 0.0648,-0.0383 0.0808,-0.1 0.0433,-0.1641 l -0.9301,-1.577 -6.2683,3.693 c -0.1028,0.0617 -0.1094,0.1699 -0.0207,0.291 l 0.4199,0.6231 c 0.023,0.0386 0.0797,0.0758 0.1648,0.0429 l 0.3899,-0.1953 4.7519,8.066 -0.3851,0.2622 c -0.0906,0.0531 -0.077,0.166 0.0051,0.275 l 0.4203,0.6242 c 0.0375,0.0636 0.0988,0.0808 0.1636,0.0418 L 56.0852,31.1539 55.1559,29.577 C 55.0945,29.473 54.9871,29.468 54.866,29.5559 l -0.625,0.4203 C 54.2031,30 54.1664,30.0551 54.1996,30.1398 l 0.1949,0.3911 -3.2187,1.8961 -1.8047,-3.0641 3.6457,-2.1457 -0.702,-1.1902 -3.6445,2.148 -1.9871,-3.3738 3.4379,-2.0262 0.2617,0.3852 c 0.0535,0.091 0.166,0.0757 0.2754,-0.0051 l 0.6231,-0.4199"
         style="fill:#27348b;fill-opacity:1;fill-rule:nonzero;stroke:none"
         id="path94"
         inkscape:connector-curvature="0" /><path
         d="m 64.4082,16.6012 c 0.0688,-0.0293 0.093,-0.0883 0.0637,-0.1571 l -0.7258,-1.6812 -6.6832,2.882 C 56.9527,17.693 56.934,17.8 57.0066,17.9309 l 0.3387,0.6711 c 0.0176,0.041 0.0692,0.0851 0.1574,0.0628 l 0.4114,-0.1449 3.7089,8.5992 -0.4156,0.211 c -0.0965,0.0418 -0.0961,0.1558 -0.0281,0.2738 l 0.3379,0.6711 c 0.0297,0.0691 0.0887,0.093 0.1574,0.0629 l 6.4488,-2.782 -0.725,-1.6797 c -0.0472,-0.1114 -0.1543,-0.1301 -0.2855,-0.0571 l -0.6711,0.3391 c -0.0414,0.018 -0.0844,0.068 -0.0629,0.1578 l 0.1445,0.411 -3.4304,1.48 -1.409,-3.266 3.8851,-1.6762 -0.5461,-1.2668 -3.8859,1.6762 -1.5512,-3.5972 3.6653,-1.5809 0.2129,0.416 c 0.0414,0.0961 0.155,0.0961 0.273,0.0277 l 0.6711,-0.3386"
         style="fill:#27348b;fill-opacity:1;fill-rule:nonzero;stroke:none"
         id="path96"
         inkscape:connector-curvature="0" /><path
         d="M 82.1938,21.1352 C 82.309,21.1031 82.3422,21 82.2875,20.8602 L 82.0406,20.15 c -0.0125,-0.043 -0.057,-0.093 -0.1476,-0.0828 l -0.4262,0.0887 -4.6977,-2.7918 2.0602,-6.1891 0.425,-0.1512 c 0.1012,-0.0277 0.1156,-0.1406 0.0645,-0.2668 L 79.0727,10.0469 C 79.0523,9.97383 78.9973,9.94297 78.9246,9.96406 l -1.5441,0.43394 -2.0336,6.12 -1.3078,-0.77 -0.8411,-2.9878 0.4391,-0.1551 c 0.1012,-0.0289 0.1168,-0.1422 0.0656,-0.2672 L 73.4555,11.627 c -0.0203,-0.0719 -0.0754,-0.1032 -0.1473,-0.0821 l -2.4691,0.6942 c -0.1157,0.032 -0.1489,0.1359 -0.0942,0.2757 l 0.2461,0.709 c 0.0133,0.0434 0.0578,0.0942 0.1485,0.0832 l 0.4265,-0.089 2.536,9.0101 -0.4387,0.1559 c -0.102,0.0281 -0.1168,0.141 -0.0656,0.2672 l 0.2468,0.7097 c 0.0207,0.0723 0.0758,0.1039 0.1473,0.0832 l 2.4691,-0.6953 c 0.1153,-0.0316 0.1496,-0.1347 0.0942,-0.2758 l -0.2465,-0.7101 c -0.0121,-0.043 -0.0574,-0.0918 -0.1481,-0.0828 l -0.4265,0.089 -1.134,-4.0281 4.916,2.9641 -0.439,0.1539 c -0.1004,0.0289 -0.1157,0.143 -0.0641,0.268 l 0.2461,0.7109 c 0.0203,0.0723 0.0754,0.1019 0.148,0.082 l 2.7868,-0.7847"
         style="fill:#27348b;fill-opacity:1;fill-rule:nonzero;stroke:none"
         id="path98"
         inkscape:connector-curvature="0" /><path
         d="m 108.625,18.075 c 0.121,-0.007 0.175,-0.0988 0.153,-0.2488 l -0.085,-0.7461 c -0.002,-0.0449 -0.034,-0.1039 -0.126,-0.1129 l -0.421,-0.009 -3.052,-9.83437 C 104.987,6.79922 104.707,6.61797 104.378,6.63516 L 103.21,6.74219 C 103.046,6.75 102.992,6.8582 102.955,7.025 l -1.58,8.873 -0.017,0.002 -2.4439,-8.27305 C 98.823,7.33086 98.6063,6.92188 98.0824,6.96406 l -1.1219,0.10391 c -0.1347,0.00586 -0.2203,0.08594 -0.255,0.2832 L 94.7781,17.6551 94.3313,17.709 c -0.1063,0.0058 -0.1458,0.1129 -0.1239,0.2469 l 0.084,0.7472 c 0.0039,0.0739 0.052,0.1168 0.127,0.1129 l 2.4726,-0.1289 c 0.1203,-0.0062 0.1754,-0.0992 0.1524,-0.248 l -0.084,-0.7481 c -0.0024,-0.0449 -0.036,-0.1019 -0.1266,-0.1129 l -0.4211,-0.0082 1.4633,-8.83787 0.0141,0 2.6229,9.07497 c 0.147,0.5192 0.411,0.6852 0.77,0.652 l 0.852,-0.0899 c 0.149,-0.0242 0.205,-0.1019 0.24,-0.2992 l 1.675,-9.65974 0.014,0 2.465,8.63284 -0.447,0.0519 c -0.106,0.0063 -0.146,0.1141 -0.124,0.2481 l 0.084,0.7468 c 0.004,0.075 0.052,0.1172 0.127,0.1133 l 2.457,-0.1281"
         style="fill:#27348b;fill-opacity:1;fill-rule:nonzero;stroke:none"
         id="path100"
         inkscape:connector-curvature="0" /><path
         d="m 118.028,8.28711 c 0.104,0.00781 0.158,-0.09219 0.154,-0.22891 l 0.019,-0.75117 c 0.006,-0.075 -0.035,-0.12305 -0.11,-0.13008 l -2.556,-0.21406 c -0.12,-0.00976 -0.186,0.07422 -0.185,0.225 l -0.018,0.75117 c -0.003,0.04492 0.021,0.10782 0.109,0.12891 l 0.431,0.06719 -0.784,9.32694 -0.467,-0.009 c -0.105,-0.009 -0.157,0.0918 -0.154,0.227 l -0.018,0.7508 c -0.007,0.0761 0.034,0.123 0.109,0.13 l 2.556,0.2161 c 0.12,0.0101 0.187,-0.0758 0.184,-0.225 l 0.019,-0.7508 c 0.003,-0.0453 -0.021,-0.1082 -0.11,-0.1301 l -0.431,-0.0672 0.785,-9.32695 0.467,0.01016"
         style="fill:#27348b;fill-opacity:1;fill-rule:nonzero;stroke:none"
         id="path102"
         inkscape:connector-curvature="0" /><path
         d="m 132.183,12.607 c 0.358,-1.855 -0.751,-3.4738 -3.329,-3.97106 -1.385,-0.26602 -2.545,-0.18477 -3.406,0.00117 l -0.343,1.78279 c -0.025,0.1321 0.063,0.225 0.243,0.2449 l 0.895,0.1114 c 0.059,0.0109 0.138,-0.0043 0.172,-0.1043 l 0.184,-0.7887 c 0.722,-0.03007 1.432,0.01485 1.903,0.10586 1.341,0.25894 2.298,0.91604 2.062,2.13904 -0.252,1.3098 -0.804,1.4789 -3.228,1.852 -1.768,0.3008 -3.064,0.9219 -3.379,2.557 -0.354,1.841 0.81,3.3328 3.299,3.8117 0.913,0.1762 1.799,0.2543 2.663,0.2071 l 0.372,-1.9289 c 0.025,-0.1321 -0.064,-0.2258 -0.244,-0.245 l -0.894,-0.1121 c -0.059,-0.0097 -0.139,0.0039 -0.174,0.1051 l -0.182,0.7891 c -0.406,-0.0309 -0.809,-0.0789 -1.178,-0.1512 -1.369,-0.2629 -2.145,-1.0688 -1.95,-2.0859 0.205,-1.0598 0.896,-1.3239 3.054,-1.6571 2.248,-0.3308 3.176,-1.1898 3.46,-2.6629"
         style="fill:#27348b;fill-opacity:1;fill-rule:nonzero;stroke:none"
         id="path104"
         inkscape:connector-curvature="0" /><path
         d="m 143.205,13.8082 c 3.014,1.0137 3.014,3.3238 2.254,5.584 -0.841,2.5027 -1.996,3.966 -5.268,2.868 l -1.236,-0.4172 2.857,-8.502 1.393,0.4672 z m -3.42,9.7066 c 4.408,1.4813 6.272,-0.25 7.39,-3.5777 1.389,-4.1371 -0.113,-6.257 -3.938,-7.541 l -3.014,-1.0129 c -0.114,-0.0391 -0.2,0.027 -0.233,0.1738 l -0.196,0.7262 c -0.015,0.043 -0.006,0.109 0.075,0.152 l 0.403,0.166 -2.981,8.8726 -0.451,-0.1187 c -0.099,-0.0332 -0.175,0.0508 -0.204,0.184 l -0.196,0.7257 c -0.024,0.0711 0.004,0.1274 0.075,0.1524 l 3.27,1.0976"
         style="fill:#27348b;fill-opacity:1;fill-rule:nonzero;stroke:none"
         id="path106"
         inkscape:connector-curvature="0" /><path
         d="m 154.435,23.0531 c 0.88,-1.7551 2.427,-3.832 4.626,-2.7281 1.822,0.9148 1.832,2.866 0.587,5.3469 -0.901,1.7961 -2.455,3.7851 -4.613,2.7011 -2.197,-1.1039 -1.475,-3.5769 -0.6,-5.3199 z m 6.808,3.3848 c 1.783,-3.552 1.076,-6.0527 -1.551,-7.3731 -2.599,-1.3046 -5.083,-0.3367 -6.839,3.1614 -1.266,2.5199 -1.7,5.7578 1.57,7.4008 2.802,1.4062 5.245,-0.0532 6.82,-3.1891"
         style="fill:#27348b;fill-opacity:1;fill-rule:nonzero;stroke:none"
         id="path108"
         inkscape:connector-curvature="0" /><path
         d="m 179.302,32.7719 c 0.086,0.0613 0.183,0.0011 0.25,-0.118 l 0.397,-0.6367 c 0.044,-0.0613 0.033,-0.125 -0.029,-0.1684 l -2.054,-1.459 c -0.097,-0.0687 -0.199,-0.0308 -0.273,0.1012 l -0.398,0.6371 c -0.027,0.0367 -0.036,0.1028 0.029,0.1668 l 0.325,0.268 -4.287,5.7492 1.554,-7.2121 c 0.056,-0.2352 0.056,-0.493 -0.127,-0.6238 -0.135,-0.0953 -0.343,-0.2422 -0.474,-0.3172 -0.143,-0.0828 -0.242,-0.0988 -0.369,-0.0238 l -6.54,3.9488 3.993,-5.959 0.397,0.2441 c 0.086,0.061 0.183,0.002 0.248,-0.1171 l 0.399,-0.6372 c 0.043,-0.0617 0.032,-0.1238 -0.028,-0.1679 l -2.006,-1.4239 c -0.098,-0.0691 -0.2,-0.0308 -0.274,0.1 l -0.398,0.6372 c -0.026,0.0367 -0.035,0.1027 0.03,0.1668 l 0.335,0.2769 -5.149,7.8223 -0.385,-0.2352 c -0.085,-0.0621 -0.183,-0.0019 -0.249,0.1172 l -0.398,0.6367 c -0.043,0.061 -0.032,0.1242 0.029,0.168 l 1.467,1.0422 c 0.062,0.0441 0.124,0.032 0.183,8e-4 l 7.695,-4.618 -1.903,8.6391 c -0.029,0.1449 0.006,0.225 0.115,0.3031 l 1.529,1.0859 c 0.098,0.0692 0.199,0.0309 0.273,-0.1012 l 0.398,-0.6378 c 0.026,-0.036 0.037,-0.102 -0.027,-0.1668 l -0.338,-0.2762 5.676,-7.4488 0.384,0.2367"
         style="fill:#27348b;fill-opacity:1;fill-rule:nonzero;stroke:none"
         id="path110"
         inkscape:connector-curvature="0" /><path
         d="m 7.875,64.2109 12.1523,11.2262 2.7579,2.5961 1.539,-2.5473 c 2.6504,-4.3937 5.6055,-8.5179 8.8145,-12.3609 l 4.123,3.75 c -5.5898,6.7441 -10.1523,14.3199 -13.498,22.5352 -1.2617,3.0957 -2.3321,6.25 -3.2168,9.4449 L 13.9355,81.8809 0,79.9289 C 0.0214844,79.8711 0.0429688,79.8121 0.0644531,79.7582 L 7.875,64.2109"
         style="fill:#ffffff;fill-opacity:1;fill-rule:nonzero;stroke:none"
         id="path112"
         inkscape:connector-curvature="0" /><path
         d="m 171.65,220.283 c 0,-10.625 0,-21.246 0,-31.871 -8.556,3.14 -18.873,0.638 -24.347,-3.393 0,10.526 0,21.053 0,31.574 4.808,4.684 16.142,6.778 24.347,3.69"
         style="fill:#ffffff;fill-opacity:1;fill-rule:evenodd;stroke:none"
         id="path114"
         inkscape:connector-curvature="0" /><path
         d="m 120.6,220.199 c 0,-10.624 0,-21.245 0,-31.87 8.55,3.141 18.869,0.639 24.345,-3.393 0,10.525 0,21.053 0,31.575 -4.806,4.683 -16.14,6.776 -24.345,3.688"
         style="fill:#ffffff;fill-opacity:1;fill-rule:evenodd;stroke:none"
         id="path116"
         inkscape:connector-curvature="0" /><path
         d="m 178.986,194.921 -0.07,0.01 c -1.224,0.132 -2.157,0.201 -2.793,0.239 l 0,10.394 c 0.621,-0.036 1.528,-0.104 2.723,-0.232 l 0.14,-0.004 c 2.444,-0.11 2.78,1.136 2.78,1.136 -0.555,1.29 -1.787,1.872 -2.78,1.952 l -0.07,0.007 c -1.224,0.133 -2.157,0.204 -2.793,0.242 l 0,8.78 -2.162,0 0,-32.045 c -11.775,2.514 -20.676,1.219 -27.842,-4.039 -7.162,5.258 -16.062,6.551 -27.838,4.039 l 0,32.045 -2.162,0 0,-8.779 c -0.454,-0.028 -1.054,-0.07 -1.814,-0.141 l 0,0.326 c 0,0.245 -0.2,0.444 -0.483,0.442 l -2.937,-0.317 c -0.237,-0.015 -0.42,-0.207 -0.42,-0.447 l 0,-3.758 c 0,-0.244 0.201,-0.441 0.504,-0.433 l 2.926,0.285 c 0.226,0.023 0.41,0.218 0.41,0.447 l 0,0.357 c 0.76,0.073 1.361,0.115 1.814,0.141 l 0,-10.398 c -0.454,-0.027 -1.054,-0.069 -1.814,-0.141 l 0,0.332 c 0,0.244 -0.2,0.439 -0.483,0.439 l -2.937,-0.318 c -0.237,-0.011 -0.42,-0.207 -0.42,-0.451 l 0,-3.75 c 0,-0.244 0.201,-0.443 0.504,-0.438 l 2.926,0.295 c 0.226,0.016 0.41,0.208 0.41,0.442 l 0,0.355 c 0.76,0.072 1.361,0.113 1.814,0.14 l 0,-9.384 1.328,0.309 c 12.123,2.826 21.024,1.603 28.006,-3.842 l 0.666,-0.526 0.67,0.526 c 6.981,5.445 15.883,6.666 28.008,3.842 l 1.326,-0.309 0,9.381 c 0.621,-0.036 1.528,-0.104 2.723,-0.233 l 0.14,-0.005 c 2.444,-0.109 2.78,1.137 2.78,1.137 -0.555,1.288 -1.787,1.87 -2.78,1.95"
         style="fill:#ffffff;fill-opacity:1;fill-rule:nonzero;stroke:none"
         id="path118"
         inkscape:connector-curvature="0" /><path
         d="m 206.085,64.2109 -12.152,11.2262 -2.758,2.5961 -1.539,-2.5473 C 186.985,71.0922 184.03,66.968 180.821,63.125 l -4.123,3.75 c 5.59,6.7441 10.153,14.3199 13.498,22.5352 1.262,3.0957 2.332,6.25 3.217,9.4449 l 6.611,-16.9742 13.936,-1.952 c -0.022,-0.0578 -0.043,-0.1168 -0.064,-0.1707 l -7.811,-15.5473"
         style="fill:#ffffff;fill-opacity:1;fill-rule:nonzero;stroke:none"
         id="path120"
         inkscape:connector-curvature="0" /><path
         d="m 111.236,87.0578 c 4.879,-2.4387 9.063,-3.6457 11.592,-3.484 0.076,0.0043 0.262,0.0082 0.34,0.0121 0.865,0.0621 1.98,0.302 2.812,0.8039 0.758,0.4551 1.262,0.9403 1.694,1.5653 0.5,0.734 0.717,1.357 0.758,2.1347 -0.317,-0.1218 -0.631,-0.2168 -0.924,-0.291 -0.078,-0.0199 -0.27,-0.0566 -0.348,-0.075 -2.834,-0.4429 -6.381,-0.0578 -11.275,1.2684 -0.799,-0.8992 -2.447,-1.3992 -4.199,-0.9813 -0.147,-0.3281 -0.295,-0.6379 -0.45,-0.9531"
         style="fill:#ffffff;fill-opacity:1;fill-rule:nonzero;stroke:none"
         id="path122"
         inkscape:connector-curvature="0" /><path
         d="m 118.17,113.836 c -0.127,-0.309 -0.264,-0.604 -0.434,-0.907 -0.728,-1.261 -1.728,-2.201 -2.736,-2.697 0.012,-0.322 0.016,-0.644 0.02,-0.971 2.099,0.915 4.23,1.965 6.351,3.106 7.871,4.219 13.424,8.908 15.147,12.245 0.043,0.08 0.148,0.27 0.187,0.352 0.469,0.9 0.891,2.166 0.891,3.302 0,1.93 -0.821,3.612 -2.055,4.512 -1.627,-3.781 -4.607,-8.062 -8.689,-12.069 -2.77,-2.723 -5.737,-5.045 -8.682,-6.873"
         style="fill:#ffffff;fill-opacity:1;fill-rule:nonzero;stroke:none"
         id="path124"
         inkscape:connector-curvature="0" /><path
         d="m 117.107,93.9672 c -0.691,-0.7582 -1.89,-1.4563 -3.298,-1.5813 -0.286,-0.023 -0.541,-0.039 -0.815,-0.0308 -0.082,-0.2871 -0.17,-0.566 -0.264,-0.8469 7.077,-1.9773 12.989,-2.4031 16.014,-1.432 0.074,0.0187 0.266,0.0738 0.34,0.0976 0.871,0.2793 1.947,0.8141 2.672,1.5352 0.656,0.6621 1.051,1.2808 1.332,2.0371 0.322,0.8687 0.217,1.6109 0.217,1.6109 -0.297,-0.207 -1.772,-0.6832 -1.772,-0.6832 -2.773,-1.0097 -7.512,-1.2168 -14.426,-0.7066"
         style="fill:#ffffff;fill-opacity:1;fill-rule:nonzero;stroke:none"
         id="path126"
         inkscape:connector-curvature="0" /><path
         d="m 137.072,112.322 c -2.611,-2.871 -9.342,-6.061 -18.259,-8.205 -0.571,-0.912 -1.629,-1.756 -2.979,-2.246 -0.389,-0.145 -0.779,-0.246 -1.158,-0.315 -0.035,-0.302 -0.072,-0.586 -0.108,-0.884 0.703,0.023 1.405,0.056 2.112,0.095 8.92,0.5 15.933,2.407 18.904,4.701 0.074,0.053 0.252,0.182 0.32,0.233 0.801,0.623 1.727,1.592 2.207,2.621 0.436,0.936 0.608,1.734 0.616,2.627 0.005,1.031 -0.194,1.785 -0.659,2.559 -0.232,-0.325 -0.472,-0.625 -0.707,-0.881 -0.062,-0.073 -0.222,-0.233 -0.289,-0.305"
         style="fill:#ffffff;fill-opacity:1;fill-rule:nonzero;stroke:none"
         id="path128"
         inkscape:connector-curvature="0" /><path
         d="m 121.609,81.2672 c -2.812,0.0648 -6.855,1.3379 -11.578,3.6937 -0.22,-0.3679 -0.437,-0.7187 -0.668,-1.0629 3.635,-1.896 6.908,-3.189 9.584,-3.816 -0.129,-0.1449 -0.265,-0.2871 -0.426,-0.4359 -0.562,-0.5152 -1.162,-0.8691 -2,-1.1461 -0.923,-0.3012 -2.068,-0.2871 -2.923,-0.143 -0.078,0.0102 -0.26,0.0469 -0.334,0.0629 -1.584,0.2571 -3.686,1.1992 -6.084,2.7383 -0.282,-0.2852 -0.565,-0.5531 -0.852,-0.807 2.5,-1.6602 4.735,-2.7582 6.496,-3.2032 -0.457,-0.3589 -0.918,-0.582 -1.572,-0.7621 -0.775,-0.205 -1.711,-0.1418 -2.414,0.0082 -0.063,0.0118 -0.207,0.0528 -0.27,0.0649 -1.216,0.2672 -2.787,1.0519 -4.56,2.2871 -0.399,-0.2031 -0.805,-0.3731 -1.207,-0.5199 -0.762,-0.2262 -1.834,-0.4391 -2.623,-0.4391 -2.3577,0 -4.596,1.0719 -6.5901,3 -0.0801,0.0738 -0.6641,-0.5262 -0.584,-0.6019 1.9785,-2.1641 4.5645,-3.384 7.1251,-3.384 0.83,0 2.846,0.291 3.594,0.7547 2.109,-1.4629 3.828,-2.1579 5.23,-2.3899 0.068,-0.0121 0.233,-0.0449 0.301,-0.0551 0.777,-0.123 1.812,-0.139 2.652,0.1352 0.756,0.2461 1.301,0.568 1.811,1.0371 0.207,0.1906 0.416,0.3957 0.562,0.5918 0.891,-0.1 1.961,-0.0738 2.848,0.2109 0.924,0.3 1.584,0.6973 2.201,1.2629 0.514,0.4711 1,0.9071 1.24,1.4242 1.385,-0.0558 2.475,0.1739 2.475,0.1739 0.521,0.084 1.117,0.2621 1.615,0.7051 0.356,0.3218 0.596,0.6152 0.75,1.0039 -1.099,-0.3219 -2.297,-0.434 -3.279,-0.418 -0.111,0.0082 -0.4,0.0223 -0.52,0.0293"
         style="fill:#ffffff;fill-opacity:1;fill-rule:nonzero;stroke:none"
         id="path130"
         inkscape:connector-curvature="0" /><path
         d="m 126.109,112.775 c -2.252,-1.379 -4.546,-2.56 -6.82,-3.525 -0.256,-0.444 -0.578,-0.889 -0.953,-1.305 -1.012,-1.123 -2.227,-1.852 -3.352,-2.103 -0.013,-0.317 -0.033,-0.637 -0.046,-0.952 1.304,0.295 2.63,0.631 3.955,0.989 8.617,2.343 15.082,5.666 17.511,8.533 0.059,0.064 0.207,0.226 0.262,0.297 0.658,0.773 1.357,1.91 1.615,3.017 0.434,1.881 0.094,3.382 -0.902,4.534 -2.436,-3.313 -6.397,-6.493 -11.27,-9.485"
         style="fill:#ffffff;fill-opacity:1;fill-rule:nonzero;stroke:none"
         id="path132"
         inkscape:connector-curvature="0" /><path
         d="m 136.389,104.095 c -0.075,-0.06 -0.291,-0.216 -0.364,-0.273 -2.849,-2.201 -9.203,-3.9751 -17.42,-4.6798 l -0.007,-0.0043 c -0.549,-0.5328 -1.246,-1.1578 -2.043,-1.5309 -0.862,-0.4 -1.742,-0.6398 -2.559,-0.7031 -0.058,-0.318 -0.125,-0.5039 -0.189,-0.818 0.054,-0.0058 0.097,-0.0078 0.156,-0.0179 8.873,-1.0532 16.111,-0.3981 19.433,1.35 0.083,0.041 0.28,0.1332 0.356,0.1699 0.902,0.482 1.977,1.2691 2.629,2.2012 0.59,0.8459 0.9,1.6009 1.064,2.4759 0.178,1.018 0.127,1.713 -0.195,2.559 -0.285,-0.279 -0.584,-0.516 -0.861,-0.729"
         style="fill:#ffffff;fill-opacity:1;fill-rule:nonzero;stroke:none"
         id="path134"
         inkscape:connector-curvature="0" /><path
         d="m 118.377,120.934 c 0.004,-1.053 -0.33,-2.274 -0.994,-3.423 -0.723,-1.246 -1.697,-2.191 -2.697,-2.687 0.033,-0.334 0.066,-0.664 0.095,-1.004 3.533,1.934 7.184,4.623 10.53,7.909 4,3.934 6.914,8.096 8.507,11.8 0.44,1.015 0.657,2.245 0.569,3.565 -0.186,2.683 -1.588,4.911 -3.375,5.651 0.035,-0.51 0.011,-1.046 -0.061,-1.594 -0.392,-3.734 -3.855,-10.147 -9.656,-16.941 -0.957,-1.119 -1.928,-2.221 -2.918,-3.276"
         style="fill:#ffffff;fill-opacity:1;fill-rule:nonzero;stroke:none"
         id="path136"
         inkscape:connector-curvature="0" /><path
         d="m 119.803,125.143 c 5.722,6.866 9.105,13.319 9.453,17.058 0.285,2.347 -0.311,4.521 -1.629,5.288 -0.106,-3.339 -4.637,-11.474 -11.82,-20.577 0.673,-1.265 0.365,-3.393 -0.727,-5.256 -0.365,-0.629 -0.582,-0.847 -1.23,-1.494 0.084,-0.408 0.16,-0.842 0.234,-1.258 1.939,1.888 3.867,4.014 5.719,6.239"
         style="fill:#ffffff;fill-opacity:1;fill-rule:nonzero;stroke:none"
         id="path138"
         inkscape:connector-curvature="0" /><path
         d="m 74.5215,121.245 c -0.1758,0.069 -0.3516,0.131 -0.5293,0.18 0.0762,-0.795 0.0801,-1.656 0.0762,-2.548 -0.0176,-2.201 -0.3047,-4.293 -0.7559,-6.014 -0.1152,-0.461 0.0879,-0.904 0.4824,-1.064 0.125,-0.051 0.2656,-0.067 0.3965,-0.049 l 0.0078,0.023 c 0.7031,1.608 1.6113,3.375 2.7051,5.178 0.2012,0.336 0.4004,0.664 0.6016,0.986 -0.3672,1.414 -1.4356,2.679 -2.9844,3.308"
         style="fill:#231f20;fill-opacity:1;fill-rule:nonzero;stroke:none"
         id="path140"
         inkscape:connector-curvature="0" /><path
         d="m 135.904,105.701 c -0.068,-0.051 -0.246,-0.18 -0.32,-0.233 -2.971,-2.294 -9.984,-4.201 -18.904,-4.701 -0.707,-0.039 -1.409,-0.072 -2.112,-0.095 0.036,0.298 0.073,0.582 0.108,0.884 0.379,0.069 0.769,0.17 1.158,0.315 1.35,0.49 2.408,1.334 2.979,2.246 8.917,2.144 15.648,5.334 18.259,8.205 0.067,0.072 0.227,0.232 0.289,0.305 0.235,0.256 0.475,0.556 0.707,0.881 0.465,-0.774 0.664,-1.528 0.659,-2.559 -0.008,-0.893 -0.18,-1.691 -0.616,-2.627 -0.48,-1.029 -1.406,-1.998 -2.207,-2.621 z m 0.801,19.263 c -0.039,-0.082 -0.144,-0.272 -0.187,-0.352 -1.723,-3.337 -7.276,-8.026 -15.147,-12.245 -2.121,-1.141 -4.252,-2.191 -6.351,-3.106 -0.004,0.327 -0.008,0.649 -0.02,0.971 1.008,0.496 2.008,1.436 2.736,2.697 0.17,0.303 0.307,0.598 0.434,0.907 2.945,1.828 5.912,4.15 8.682,6.873 4.082,4.007 7.062,8.288 8.689,12.069 1.234,-0.9 2.055,-2.582 2.055,-4.512 0,-1.136 -0.422,-2.402 -0.891,-3.302 z m 1.576,-7.238 c -0.258,-1.107 -0.957,-2.244 -1.615,-3.017 -0.055,-0.071 -0.203,-0.233 -0.262,-0.297 -2.429,-2.867 -8.894,-6.19 -17.511,-8.533 -1.325,-0.358 -2.651,-0.694 -3.955,-0.989 0.013,0.315 0.033,0.635 0.046,0.952 1.125,0.251 2.34,0.98 3.352,2.103 0.375,0.416 0.697,0.861 0.953,1.305 2.274,0.965 4.568,2.146 6.82,3.525 4.873,2.992 8.834,6.172 11.27,9.485 0.996,-1.152 1.336,-2.653 0.902,-4.534 z m -7.269,25.019 c 1.787,-0.74 3.189,-2.968 3.375,-5.651 0.088,-1.32 -0.129,-2.55 -0.569,-3.565 -1.593,-3.704 -4.507,-7.866 -8.507,-11.8 -3.346,-3.286 -6.997,-5.975 -10.53,-7.909 -0.029,0.34 -0.062,0.67 -0.095,1.004 1,0.496 1.974,1.441 2.697,2.687 0.664,1.149 0.998,2.37 0.994,3.423 0.99,1.055 1.961,2.157 2.918,3.276 5.801,6.794 9.264,13.207 9.656,16.941 0.072,0.548 0.096,1.084 0.061,1.594 z m -1.756,-0.544 c -0.348,-3.739 -3.731,-10.192 -9.453,-17.058 -1.852,-2.225 -3.78,-4.351 -5.719,-6.239 -0.074,0.416 -0.15,0.85 -0.234,1.258 0.648,0.647 0.865,0.865 1.23,1.494 1.092,1.863 1.4,3.991 0.727,5.256 7.183,9.103 11.714,17.238 11.82,20.577 1.318,-0.767 1.914,-2.941 1.629,-5.288 z m -6.088,-58.6151 c -0.078,-0.0039 -0.264,-0.0078 -0.34,-0.0121 -2.529,-0.1617 -6.713,1.0453 -11.592,3.484 0.155,0.3152 0.303,0.625 0.45,0.9531 1.752,-0.4179 3.4,0.0821 4.199,0.9813 4.894,-1.3262 8.441,-1.7113 11.275,-1.2684 0.078,0.0184 0.27,0.0551 0.348,0.075 0.293,0.0742 0.607,0.1692 0.924,0.291 -0.041,-0.7777 -0.258,-1.4007 -0.758,-2.1347 -0.432,-0.625 -0.936,-1.1102 -1.694,-1.5653 -0.832,-0.5019 -1.947,-0.7418 -2.812,-0.8039 z m -0.125,-3.639 c 0,0 -1.09,-0.2297 -2.475,-0.1739 -0.24,-0.5171 -0.726,-0.9531 -1.24,-1.4242 -0.617,-0.5656 -1.277,-0.9629 -2.201,-1.2629 -0.887,-0.2847 -1.957,-0.3109 -2.848,-0.2109 -0.146,-0.1961 -0.355,-0.4012 -0.562,-0.5918 -0.51,-0.4691 -1.055,-0.791 -1.811,-1.0371 -0.84,-0.2742 -1.875,-0.2582 -2.652,-0.1352 -0.068,0.0102 -0.233,0.043 -0.301,0.0551 -1.402,0.232 -3.121,0.927 -5.23,2.3899 -0.748,-0.4637 -2.764,-0.7547 -3.594,-0.7547 -2.5606,0 -5.1466,1.2199 -7.1251,3.384 -0.0801,0.0757 0.5039,0.6757 0.584,0.6019 1.9941,-1.9281 4.2324,-3 6.5901,-3 0.789,0 1.861,0.2129 2.623,0.4391 0.402,0.1468 0.808,0.3168 1.207,0.5199 1.773,-1.2352 3.344,-2.0199 4.56,-2.2871 0.063,-0.0121 0.207,-0.0531 0.27,-0.0649 0.703,-0.15 1.639,-0.2132 2.414,-0.0082 0.654,0.1801 1.115,0.4032 1.572,0.7621 -1.761,0.445 -3.996,1.543 -6.496,3.2032 0.287,0.2539 0.57,0.5218 0.852,0.807 2.398,-1.5391 4.5,-2.4812 6.084,-2.7383 0.074,-0.016 0.256,-0.0527 0.334,-0.0629 0.855,-0.1441 2,-0.1582 2.923,0.143 0.838,0.277 1.438,0.6309 2,1.1461 0.161,0.1488 0.297,0.291 0.426,0.4359 -2.676,0.627 -5.949,1.92 -9.584,3.816 0.231,0.3442 0.448,0.695 0.668,1.0629 4.723,-2.3558 8.766,-3.6289 11.578,-3.6937 0.12,-0.007 0.409,-0.0211 0.52,-0.0293 0.982,-0.016 2.18,0.0961 3.279,0.418 -0.154,-0.3887 -0.394,-0.6821 -0.75,-1.0039 -0.498,-0.443 -1.094,-0.6211 -1.615,-0.7051 z m 10.045,13.7992 c -0.281,-0.7563 -0.676,-1.375 -1.332,-2.0371 -0.725,-0.7211 -1.801,-1.2559 -2.672,-1.5352 -0.074,-0.0238 -0.266,-0.0789 -0.34,-0.0976 -3.025,-0.9711 -8.937,-0.5453 -16.014,1.432 0.094,0.2809 0.182,0.5598 0.264,0.8469 0.274,-0.0082 0.529,0.0078 0.815,0.0308 1.408,0.125 2.607,0.8231 3.298,1.5813 6.914,-0.5102 11.653,-0.3031 14.426,0.7066 0,0 1.475,0.4762 1.772,0.6832 0,0 0.105,-0.7422 -0.217,-1.6109 z m 4.357,8.5189 c -0.164,-0.875 -0.474,-1.63 -1.064,-2.4759 -0.652,-0.9321 -1.727,-1.7192 -2.629,-2.2012 -0.076,-0.0367 -0.273,-0.1289 -0.356,-0.1699 -3.322,-1.7481 -10.56,-2.4032 -19.433,-1.35 -0.059,0.0101 -0.102,0.0121 -0.156,0.0179 0.064,0.3141 0.131,0.5 0.189,0.818 0.817,0.0633 1.697,0.3031 2.559,0.7031 0.797,0.3731 1.494,0.9981 2.043,1.5309 l 0.007,0.0043 c 8.217,0.7047 14.571,2.4788 17.42,4.6798 0.073,0.057 0.289,0.213 0.364,0.273 0.277,0.213 0.576,0.45 0.861,0.729 0.322,-0.846 0.373,-1.541 0.195,-2.559 z m 3.631,8.844 c -0.096,1.391 -0.537,2.69 -1.209,3.746 0.832,1.225 1.27,2.776 1.211,4.526 -0.06,1.899 -0.74,3.643 -1.805,4.942 0.684,1.211 1.03,2.638 0.975,4.252 -0.098,2.848 -1.455,5.324 -3.449,6.621 0.068,0.544 0.084,1.072 0.072,1.647 -0.129,4.279 -1.976,6.975 -4.943,8.125 -0.631,3.072 -2.699,5.908 -4.545,7.293 -2.244,-9.516 -9.309,-18.665 -11.856,-22.28 -4.097,-5.813 -5.054,-11.341 -7.336,-18.011 -2.693,-7.869 -4.582,-16.2302 -11.7945,-21.1829 0,0.7828 0.043,1.5899 0.1367,2.4258 1.1875,10.7201 9.8518,28.1721 6.7148,38.3481 -0.189,0.616 -0.408,1.221 -0.672,1.807 -3.0877,6.976 -10.1112,8.062 -17.3045,4.817 -4.4805,-2.018 -9.1367,-3.726 -11.2793,-8.614 -0.8613,-1.968 -1.166,-3.98 -0.9688,-5.702 0.043,-0.385 0.252,-0.695 0.5801,-0.806 0.4473,-0.153 0.9551,0.111 1.2207,0.608 0.1992,0.341 0.334,0.819 0.3692,1.345 0,0.022 0.0039,0.042 0.0078,0.064 0.0078,0.116 0.0312,0.245 0.0781,0.367 0.2266,0.553 0.8223,0.833 1.3379,0.627 0.5137,-0.212 0.7402,-0.831 0.5176,-1.382 -0.0391,-0.098 -0.086,-0.182 -0.1485,-0.265 -0.1308,-0.178 -0.2597,-0.383 -0.3847,-0.601 -0.2696,-0.497 -0.4356,-0.989 -0.4961,-1.39 -0.084,-0.574 0.2343,-1.161 0.789,-1.397 0.0371,-0.02 0.0957,-0.047 0.1348,-0.064 2.0332,-0.829 4.4531,0.229 5.9082,2.385 0.5332,0.804 1.041,1.72 1.5,2.708 0.7188,1.545 0.6816,3.119 1.8516,4.489 1.9668,2.287 7.707,3.786 10.2031,0.756 4.8538,-5.891 -0.543,-13.511 -3.9082,-18.52 -4.2383,-6.311 -10.1367,-13.5348 -13.1016,-20.641 -7.75,-18.5661 5.4766,-36.7829 26.8066,-36.7829 13.547,0 22.002,5.9 26.809,12.9489 -9.252,0.7211 -14.282,6.707 -14.282,6.707 0,0 1.85,0.1879 3.049,2.1969 0,0 0.865,0.1 1.637,0.2 1.867,0.2441 3.576,1.1992 4.289,3.2793 0.605,1.7558 0.641,2.8566 0.641,2.8566 0,0 1.246,0.5242 1.972,2.2051 0.41,0.9543 0.52,1.4262 0.524,2.3891 2.142,0.721 3.779,2.5609 4.679,4.8949 0.473,1.2383 0.567,1.832 0.456,3.0269 2.41,1.2114 4.224,4.6352 4.13,7.4102 -0.029,0.947 -0.267,1.803 -0.617,2.609 1.078,1.254 1.639,3.004 1.5,5.016"
         style="fill:#231f20;fill-opacity:1;fill-rule:nonzero;stroke:none"
         id="path142"
         inkscape:connector-curvature="0" /><path
         d="m 129.327,205.332 -4.654,0 0,7.436 4.555,0 c 0.043,-0.121 0.077,-0.352 0.077,-0.66 0,-0.241 -0.023,-0.451 -0.077,-0.683 l -2.982,0 0,-1.605 2.52,0 c 0.044,-0.121 0.077,-0.342 0.077,-0.649 0,-0.242 -0.023,-0.441 -0.077,-0.671 l -2.52,0 0,-1.827 3.081,0 c 0.044,-0.121 0.076,-0.351 0.076,-0.66 0,-0.242 -0.021,-0.451 -0.076,-0.681"
         style="fill:#27348b;fill-opacity:1;fill-rule:nonzero;stroke:none"
         id="path144"
         inkscape:connector-curvature="0" /><path
         d="m 132.835,211.537 c -0.242,0 -0.539,-0.012 -0.726,-0.023 l 0,-2.2 0.55,0 c 0.903,0 1.298,0.33 1.298,1.145 0,0.813 -0.395,1.078 -1.122,1.078 z m 3.18,-6.194 c -0.286,-0.045 -0.583,-0.067 -0.924,-0.067 -0.309,0 -0.616,0.011 -0.825,0.056 l -1.508,2.673 -0.649,0 0,-2.673 c -0.275,-0.045 -0.506,-0.056 -0.803,-0.056 -0.264,0 -0.495,0.011 -0.77,0.056 l 0,7.436 c 0.506,0.034 1.562,0.056 2.2,0.056 1.87,0 2.806,-0.66 2.806,-2.377 0,-0.913 -0.551,-1.826 -1.32,-2.156 l 1.793,-2.948"
         style="fill:#27348b;fill-opacity:1;fill-rule:nonzero;stroke:none"
         id="path146"
         inkscape:connector-curvature="0" /><path
         d="m 141.449,205.332 -4.654,0 0,7.436 4.555,0 c 0.044,-0.121 0.077,-0.352 0.077,-0.66 0,-0.241 -0.023,-0.451 -0.077,-0.683 l -2.982,0 0,-1.605 2.52,0 c 0.044,-0.121 0.077,-0.342 0.077,-0.649 0,-0.242 -0.023,-0.441 -0.077,-0.671 l -2.52,0 0,-1.827 3.081,0 c 0.044,-0.121 0.076,-0.351 0.076,-0.66 0,-0.242 -0.021,-0.451 -0.076,-0.681"
         style="fill:#27348b;fill-opacity:1;fill-rule:nonzero;stroke:none"
         id="path148"
         inkscape:connector-curvature="0" /><path
         d="m 126.973,201.275 c -0.221,0 -0.507,-0.011 -0.727,-0.021 l 0,-2.19 0.683,0 c 0.846,0 1.298,0.22 1.298,1.121 0,0.772 -0.385,1.09 -1.254,1.09 z m 0.044,-3.531 -0.771,0 0,-2.662 c -0.209,-0.034 -0.462,-0.056 -0.792,-0.056 -0.297,0 -0.572,0.022 -0.781,0.056 l 0,7.425 c 0.639,0.034 1.606,0.067 2.233,0.067 1.684,0 2.905,-0.584 2.905,-2.333 0,-1.705 -1.068,-2.497 -2.794,-2.497"
         style="fill:#27348b;fill-opacity:1;fill-rule:nonzero;stroke:none"
         id="path150"
         inkscape:connector-curvature="0" /><path
         d="m 135.436,195.082 -4.654,0 0,7.436 4.555,0 c 0.044,-0.121 0.077,-0.352 0.077,-0.66 0,-0.241 -0.022,-0.451 -0.077,-0.683 l -2.982,0 0,-1.605 2.519,0 c 0.045,-0.121 0.077,-0.342 0.077,-0.649 0,-0.242 -0.021,-0.441 -0.077,-0.671 l -2.519,0 0,-1.827 3.081,0 c 0.043,-0.121 0.077,-0.351 0.077,-0.66 0,-0.242 -0.023,-0.451 -0.077,-0.681"
         style="fill:#27348b;fill-opacity:1;fill-rule:nonzero;stroke:none"
         id="path152"
         inkscape:connector-curvature="0" /><path
         d="m 138.819,201.287 c -0.242,0 -0.539,-0.012 -0.726,-0.023 l 0,-2.2 0.55,0 c 0.902,0 1.298,0.33 1.298,1.145 0,0.813 -0.396,1.078 -1.122,1.078 z m 3.179,-6.194 c -0.285,-0.045 -0.583,-0.067 -0.924,-0.067 -0.307,0 -0.616,0.011 -0.825,0.056 l -1.507,2.673 -0.649,0 0,-2.673 c -0.275,-0.045 -0.506,-0.056 -0.803,-0.056 -0.265,0 -0.495,0.011 -0.77,0.056 l 0,7.436 c 0.505,0.034 1.562,0.056 2.2,0.056 1.87,0 2.805,-0.66 2.805,-2.377 0,-0.913 -0.549,-1.826 -1.32,-2.156 l 1.793,-2.948"
         style="fill:#27348b;fill-opacity:1;fill-rule:nonzero;stroke:none"
         id="path154"
         inkscape:connector-curvature="0" /><path
         d="m 157.174,208.148 -0.649,2.101 c -0.077,0.242 -0.154,0.549 -0.22,0.891 l -0.022,0 c -0.055,-0.342 -0.143,-0.649 -0.22,-0.891 l -0.616,-2.101 1.727,0 z m 2.629,-2.816 c -0.143,-0.034 -0.484,-0.056 -0.847,-0.056 -0.286,0 -0.616,0.033 -0.759,0.056 l -0.55,1.507 -2.641,0 -0.517,-1.507 c -0.241,-0.034 -0.528,-0.056 -0.814,-0.056 -0.286,0 -0.616,0.022 -0.781,0.056 l 2.597,7.436 c 0.154,0.034 0.517,0.056 0.759,0.056 0.297,0 0.649,-0.022 0.77,-0.056 l 2.783,-7.436"
         style="fill:#27348b;fill-opacity:1;fill-rule:nonzero;stroke:none"
         id="path156"
         inkscape:connector-curvature="0" /><path
         d="m 162.75,211.537 c -0.242,0 -0.539,-0.012 -0.726,-0.023 l 0,-2.2 0.55,0 c 0.903,0 1.299,0.33 1.299,1.145 0,0.813 -0.396,1.078 -1.123,1.078 z m 3.18,-6.194 c -0.286,-0.045 -0.583,-0.067 -0.924,-0.067 -0.308,0 -0.616,0.011 -0.825,0.056 l -1.508,2.673 -0.649,0 0,-2.673 c -0.274,-0.045 -0.506,-0.056 -0.803,-0.056 -0.264,0 -0.495,0.011 -0.77,0.056 l 0,7.436 c 0.506,0.034 1.562,0.056 2.2,0.056 1.87,0 2.806,-0.66 2.806,-2.377 0,-0.913 -0.55,-1.826 -1.32,-2.156 l 1.793,-2.948"
         style="fill:#27348b;fill-opacity:1;fill-rule:nonzero;stroke:none"
         id="path158"
         inkscape:connector-curvature="0" /><path
         d="m 156.453,201.175 -1.97,0 0,-6.093 c -0.209,-0.034 -0.505,-0.056 -0.78,-0.056 -0.276,0 -0.573,0.022 -0.793,0.056 l 0,6.093 -1.969,0 c -0.044,0.144 -0.077,0.485 -0.077,0.672 0,0.188 0.044,0.528 0.088,0.671 l 5.501,0 c 0.044,-0.143 0.077,-0.483 0.077,-0.671 0,-0.187 -0.033,-0.528 -0.077,-0.672"
         style="fill:#27348b;fill-opacity:1;fill-rule:nonzero;stroke:none"
         id="path160"
         inkscape:connector-curvature="0" /><path
         d="m 162.011,195.082 -4.654,0 0,7.436 4.555,0 c 0.044,-0.121 0.077,-0.352 0.077,-0.66 0,-0.241 -0.022,-0.451 -0.077,-0.683 l -2.981,0 0,-1.605 2.519,0 c 0.044,-0.121 0.077,-0.342 0.077,-0.649 0,-0.242 -0.022,-0.441 -0.077,-0.671 l -2.519,0 0,-1.827 3.08,0 c 0.044,-0.121 0.077,-0.351 0.077,-0.66 0,-0.242 -0.022,-0.451 -0.077,-0.681"
         style="fill:#27348b;fill-opacity:1;fill-rule:nonzero;stroke:none"
         id="path162"
         inkscape:connector-curvature="0" /><path
         d="m 165.308,194.971 c -0.804,0 -1.684,0.154 -2.311,0.441 -0.033,0.153 -0.055,0.351 -0.055,0.527 0,0.264 0.033,0.518 0.11,0.815 0.649,-0.264 1.507,-0.43 2.178,-0.43 0.782,0 1.2,0.363 1.2,0.858 0,0.55 -0.352,0.782 -1.42,1.112 -1.188,0.363 -2.057,0.934 -2.057,2.211 0,1.364 1.177,2.124 2.729,2.124 0.714,0 1.353,-0.111 1.782,-0.254 0.033,-0.121 0.055,-0.319 0.055,-0.605 0,-0.209 -0.022,-0.528 -0.066,-0.704 -0.55,0.143 -1.178,0.221 -1.683,0.221 -0.826,0 -1.277,-0.276 -1.277,-0.716 0,-0.517 0.407,-0.725 1.398,-1.034 1.188,-0.374 2.068,-0.936 2.068,-2.256 0,-1.44 -1.133,-2.31 -2.651,-2.31"
         style="fill:#27348b;fill-opacity:1;fill-rule:nonzero;stroke:none"
         id="path164"
         inkscape:connector-curvature="0" /><path
         d="m 49.7992,208.588 c 0.1653,-0.462 0.3301,-0.979 0.4074,-1.419 l 0.0219,0 c 0.0766,0.44 0.2309,0.957 0.3961,1.419 l 0.8141,2.354 c 0.209,0.604 0.3301,1.188 0.3406,1.826 0.2203,0.034 0.5281,0.056 0.7812,0.056 0.2309,0 0.561,-0.022 0.7594,-0.056 0,-0.737 -0.1324,-1.44 -0.4293,-2.222 l -1.9914,-5.214 c -0.1316,-0.034 -0.4398,-0.056 -0.7039,-0.056 -0.2969,0 -0.539,0.022 -0.7375,0.056 L 47.5,210.524 c -0.2973,0.78 -0.4293,1.507 -0.4293,2.244 0.1984,0.034 0.4621,0.056 0.7922,0.056 0.2531,0 0.5723,-0.022 0.7703,-0.056 0,-0.682 0.1207,-1.222 0.3297,-1.826 l 0.8363,-2.354"
         style="fill:#27348b;fill-opacity:1;fill-rule:nonzero;stroke:none"
         id="path166"
         inkscape:connector-curvature="0" /><path
         d="m 55.8816,205.332 c -0.2086,-0.034 -0.4617,-0.056 -0.7918,-0.056 -0.2972,0 -0.5722,0.022 -0.7812,0.056 l 0,7.436 c 0.209,0.034 0.5172,0.056 0.7922,0.056 0.3078,0 0.5828,-0.022 0.7808,-0.056 l 0,-7.436"
         style="fill:#27348b;fill-opacity:1;fill-rule:nonzero;stroke:none"
         id="path168"
         inkscape:connector-curvature="0" /><path
         d="m 62.3832,211.425 -1.9691,0 0,-6.093 c -0.209,-0.034 -0.5059,-0.056 -0.7809,-0.056 -0.2754,0 -0.5723,0.022 -0.7926,0.056 l 0,6.093 -1.9691,0 c -0.0438,0.144 -0.077,0.485 -0.077,0.672 0,0.188 0.0446,0.528 0.0883,0.671 l 5.5004,0 c 0.0441,-0.143 0.0773,-0.483 0.0773,-0.671 0,-0.187 -0.0332,-0.528 -0.0773,-0.672"
         style="fill:#27348b;fill-opacity:1;fill-rule:nonzero;stroke:none"
         id="path170"
         inkscape:connector-curvature="0" /><path
         d="m 50.8059,197.898 -0.6493,2.101 c -0.0769,0.242 -0.1543,0.549 -0.2203,0.891 l -0.0218,0 c -0.0551,-0.342 -0.143,-0.649 -0.2204,-0.891 l -0.6156,-2.101 1.7274,0 z m 2.6293,-2.816 c -0.143,-0.034 -0.484,-0.056 -0.8473,-0.056 -0.2859,0 -0.616,0.033 -0.7594,0.056 l -0.5496,1.507 -2.6406,0 -0.5172,-1.507 c -0.2418,-0.034 -0.5277,-0.056 -0.8141,-0.056 -0.2859,0 -0.616,0.022 -0.7812,0.056 l 2.5969,7.436 c 0.1539,0.034 0.5168,0.056 0.7586,0.056 0.2972,0 0.6496,-0.022 0.7707,-0.056 l 2.7832,-7.436"
         style="fill:#27348b;fill-opacity:1;fill-rule:nonzero;stroke:none"
         id="path172"
         inkscape:connector-curvature="0" /><path
         d="m 61.8281,195.082 c -0.1316,-0.034 -0.4293,-0.056 -0.7367,-0.056 -0.3301,0 -0.6383,0.033 -0.7707,0.056 l -0.1316,4.466 -1.6286,-3.763 c -0.1207,-0.043 -0.3847,-0.065 -0.55,-0.065 -0.198,0 -0.4398,0.022 -0.5609,0.054 l -1.6281,3.774 -0.1434,-4.466 c -0.1429,-0.034 -0.484,-0.056 -0.7804,-0.056 -0.1766,0 -0.4735,0.022 -0.6715,0.056 l 0.3191,7.436 c 0.209,0.023 0.418,0.056 0.6379,0.056 0.2641,0 0.5172,-0.022 0.6492,-0.056 l 2.1781,-5.05 2.1899,5.05 c 0.2195,0.034 0.4398,0.056 0.6375,0.056 0.2535,0 0.4844,-0.022 0.6492,-0.056 l 0.341,-7.436"
         style="fill:#27348b;fill-opacity:1;fill-rule:nonzero;stroke:none"
         id="path174"
         inkscape:connector-curvature="0" /><path
         d="m 77.8809,205.332 -4.6539,0 0,7.436 4.5546,0 c 0.0442,-0.121 0.077,-0.352 0.077,-0.66 0,-0.241 -0.0223,-0.451 -0.077,-0.683 l -2.9812,0 0,-1.605 2.5187,0 c 0.0446,-0.121 0.0774,-0.342 0.0774,-0.649 0,-0.242 -0.0219,-0.441 -0.0774,-0.671 l -2.5187,0 0,-1.827 3.0805,0 c 0.0437,-0.121 0.0765,-0.351 0.0765,-0.66 0,-0.242 -0.0219,-0.451 -0.0765,-0.681"
         style="fill:#27348b;fill-opacity:1;fill-rule:nonzero;stroke:none"
         id="path176"
         inkscape:connector-curvature="0" /><path
         d="m 79.6168,207.345 1.4082,1.914 -1.2871,1.793 c -0.418,0.573 -0.682,1.1 -0.7699,1.716 0.1758,0.034 0.5386,0.056 0.7699,0.056 0.275,0 0.5941,-0.022 0.7812,-0.056 0.0547,-0.483 0.3301,-0.88 0.6157,-1.297 l 0.7707,-1.124 0.7918,1.112 c 0.264,0.375 0.5172,0.847 0.5609,1.309 0.1871,0.023 0.5172,0.056 0.7813,0.056 0.2418,0 0.5718,-0.022 0.748,-0.056 -0.0879,-0.704 -0.3738,-1.243 -0.825,-1.87 l -1.166,-1.606 1.4082,-1.98 c 0.4949,-0.682 0.7262,-1.353 0.7699,-1.98 -0.1871,-0.034 -0.5062,-0.056 -0.7812,-0.056 -0.2422,0 -0.561,0.022 -0.77,0.056 -0.0332,0.483 -0.1984,0.945 -0.473,1.363 l -1.0449,1.574 -1.0239,-1.541 c -0.2632,-0.406 -0.4175,-0.913 -0.4175,-1.396 -0.1758,-0.034 -0.55,-0.056 -0.7922,-0.056 -0.2641,0 -0.5828,0.033 -0.7699,0.056 0.0218,0.67 0.1429,1.232 0.7148,2.013"
         style="fill:#27348b;fill-opacity:1;fill-rule:nonzero;stroke:none"
         id="path178"
         inkscape:connector-curvature="0" /><path
         d="m 90.5422,211.216 c -0.5285,0.167 -1.1887,0.288 -1.7164,0.288 -1.2543,0 -2.0684,-0.892 -2.0684,-2.487 0,-1.463 0.6379,-2.421 2.0571,-2.421 0.5285,0 1.1226,0.111 1.6503,0.275 0.0774,-0.198 0.1321,-0.506 0.1321,-0.737 0,-0.187 -0.011,-0.418 -0.0328,-0.517 -0.5504,-0.252 -1.2543,-0.396 -1.9036,-0.396 -2.3652,0 -3.5316,1.431 -3.5316,3.763 0,2.266 1.2543,3.895 3.5977,3.895 0.5722,0 1.3203,-0.143 1.848,-0.375 0.0332,-0.11 0.0442,-0.352 0.0442,-0.495 0,-0.341 -0.0442,-0.659 -0.0766,-0.793"
         style="fill:#27348b;fill-opacity:1;fill-rule:nonzero;stroke:none"
         id="path180"
         inkscape:connector-curvature="0" /><path
         d="m 75.7191,201.275 c -0.9461,0 -1.4851,-0.727 -1.4851,-2.475 0,-1.75 0.539,-2.476 1.4851,-2.476 0.9457,0 1.4852,0.726 1.4852,2.476 0,1.748 -0.5395,2.475 -1.4852,2.475 z m 0,-6.304 c -2.0355,0 -3.1136,1.409 -3.1136,3.829 0,2.421 1.0781,3.829 3.1136,3.829 2.0352,0 3.1133,-1.408 3.1133,-3.829 0,-2.42 -1.0781,-3.829 -3.1133,-3.829"
         style="fill:#27348b;fill-opacity:1;fill-rule:nonzero;stroke:none"
         id="path182"
         inkscape:connector-curvature="0" /><path
         d="m 84.2715,195.082 -4.5547,0 0,7.436 c 0.209,0.034 0.4949,0.056 0.7699,0.056 0.3082,0 0.6051,-0.022 0.8031,-0.056 l 0,-6.095 2.9817,0 c 0.0437,-0.121 0.0769,-0.351 0.0769,-0.66 0,-0.242 -0.0222,-0.451 -0.0769,-0.681"
         style="fill:#27348b;fill-opacity:1;fill-rule:nonzero;stroke:none"
         id="path184"
         inkscape:connector-curvature="0" /><path
         d="m 90.5254,197.909 c 0,-1.893 -0.7262,-2.938 -2.8383,-2.938 -2.1344,0 -2.8058,1.045 -2.8058,2.938 l 0,4.609 c 0.2203,0.034 0.5066,0.056 0.7703,0.056 0.3078,0 0.5832,-0.022 0.8031,-0.056 l 0,-4.72 c 0,-1.011 0.2859,-1.584 1.243,-1.584 0.957,0 1.2871,0.573 1.2871,1.584 l 0,4.72 c 0.1984,0.034 0.5285,0.056 0.7812,0.056 0.2422,0 0.5723,-0.022 0.7594,-0.056 l 0,-4.609"
         style="fill:#27348b;fill-opacity:1;fill-rule:nonzero;stroke:none"
         id="path186"
         inkscape:connector-curvature="0" /></g></g></svg>